<svg width="24" height="24" viewBox="0 0 24 24" fill="none" xmlns="http://www.w3.org/2000/svg">
<path opacity="0.3" d="M3.172 7.17201C4.015 6.32801 5.23 6.09201 7.252 6.02601L8.752 6.00201C9.144 6.00001 9.56 5.99934 10 6.00001H14C14.4413 6.00001 14.8573 6.00067 15.248 6.00201L16.748 6.02601C18.77 6.09201 19.985 6.32801 20.828 7.17201C22 8.34301 22 10.229 22 14C22 17.771 22 19.657 20.828 20.828C19.656 21.999 17.771 22 14 22H10C6.229 22 4.343 22 3.172 20.828C2.001 19.656 2 17.771 2 14C2 10.229 2 8.34301 3.172 7.17201Z" fill="#0157FE"/>
<path d="M12.75 10C12.75 9.80109 12.6709 9.61032 12.5303 9.46967C12.3896 9.32902 12.1989 9.25 12 9.25C11.801 9.25 11.6103 9.32902 11.4696 9.46967C11.329 9.61032 11.25 9.80109 11.25 10V10.01C10.161 10.284 9.24995 11.143 9.24995 12.333C9.24995 13.79 10.615 14.75 12 14.75C12.824 14.75 13.25 15.283 13.25 15.667C13.25 16.051 12.824 16.583 12 16.583C11.176 16.583 10.75 16.051 10.75 15.667C10.75 15.4681 10.6709 15.2773 10.5303 15.1367C10.3896 14.996 10.1989 14.917 9.99995 14.917C9.80104 14.917 9.61028 14.996 9.46962 15.1367C9.32897 15.2773 9.24995 15.4681 9.24995 15.667C9.24995 16.857 10.161 17.715 11.25 17.99V18C11.25 18.1989 11.329 18.3897 11.4696 18.5303C11.6103 18.671 11.801 18.75 12 18.75C12.1989 18.75 12.3896 18.671 12.5303 18.5303C12.6709 18.3897 12.75 18.1989 12.75 18V17.99C13.839 17.716 14.75 16.857 14.75 15.667C14.75 14.21 13.385 13.25 12 13.25C11.176 13.25 10.75 12.717 10.75 12.333C10.75 11.949 11.176 11.417 12 11.417C12.824 11.417 13.25 11.949 13.25 12.333C13.25 12.5319 13.329 12.7227 13.4696 12.8633C13.6103 13.004 13.801 13.083 14 13.083C14.1989 13.083 14.3896 13.004 14.5303 12.8633C14.6709 12.7227 14.75 12.5319 14.75 12.333C14.75 11.143 13.839 10.284 12.75 10.01V10ZM12.052 1.25H11.948C11.05 1.25 10.3 1.25 9.70595 1.33C9.07795 1.414 8.51095 1.6 8.05595 2.055C7.59995 2.511 7.41395 3.078 7.32995 3.705C7.27295 4.132 7.25695 5.151 7.25195 6.025L8.75195 6.002C8.75695 5.155 8.77195 4.244 8.81695 3.905C8.87895 3.444 8.98595 3.246 9.11695 3.116C9.24795 2.986 9.44395 2.879 9.90595 2.816C10.389 2.752 11.036 2.75 12 2.75C12.964 2.75 13.612 2.752 14.095 2.817C14.556 2.879 14.754 2.986 14.884 3.117C15.014 3.248 15.122 3.444 15.184 3.905C15.229 4.245 15.244 5.155 15.248 6.002L16.748 6.026C16.744 5.151 16.728 4.132 16.67 3.706C16.586 3.078 16.4 2.511 15.945 2.056C15.489 1.6 14.922 1.414 14.295 1.33C13.7 1.25 12.951 1.25 12.052 1.25Z" fill="#0157FE"/>
</svg>
