<svg width="24" height="24" viewBox="0 0 24 24" fill="none" xmlns="http://www.w3.org/2000/svg">
<path opacity="0.3" fill-rule="evenodd" clip-rule="evenodd" d="M12.67 2.21703L21.17 6.96703C21.4195 7.0916 21.6294 7.28326 21.776 7.52049C21.9226 7.75773 22.0002 8.03114 22 8.31003V9.75003C22 10.44 21.44 11 20.75 11H20V19H21C21.2652 19 21.5196 19.1054 21.7071 19.2929C21.8946 19.4805 22 19.7348 22 20C22 20.2652 21.8946 20.5196 21.7071 20.7071C21.5196 20.8947 21.2652 21 21 21H3C2.73478 21 2.48043 20.8947 2.29289 20.7071C2.10536 20.5196 2 20.2652 2 20C2 19.7348 2.10536 19.4805 2.29289 19.2929C2.48043 19.1054 2.73478 19 3 19H4V11H3.25C2.56 11 2 10.44 2 9.75003V8.31003C2 7.78803 2.27 7.30803 2.706 7.03603L11.329 2.21703C11.751 2.00603 12.248 2.00603 12.67 2.21703Z" fill="#0157FE"/>
<path fill-rule="evenodd" clip-rule="evenodd" d="M12 6C11.7348 6 11.4804 6.10536 11.2929 6.29289C11.1054 6.48043 11 6.73478 11 7C11 7.26522 11.1054 7.51957 11.2929 7.70711C11.4804 7.89464 11.7348 8 12 8C12.2652 8 12.5196 7.89464 12.7071 7.70711C12.8946 7.51957 13 7.26522 13 7C13 6.73478 12.8946 6.48043 12.7071 6.29289C12.5196 6.10536 12.2652 6 12 6ZM17 11H7V19H9V13H11V19H13V13H15V19H17V11Z" fill="#0157FE"/>
</svg>
