<svg width="18" height="18" viewBox="0 0 18 18" fill="none" xmlns="http://www.w3.org/2000/svg">
<path opacity="0.5" d="M16.5 9C16.5 13.1423 13.1423 16.5 9 16.5C4.85775 16.5 1.5 13.1423 1.5 9C1.5 4.85775 4.85775 1.5 9 1.5C13.1423 1.5 16.5 4.85775 16.5 9Z" fill="#80ABFE"/>
<path d="M8.99942 6.75C9.39725 6.75 9.77878 6.59196 10.0601 6.31066C10.3414 6.02936 10.4994 5.64782 10.4994 5.25C10.4994 4.85218 10.3414 4.47064 10.0601 4.18934C9.77878 3.90804 9.39725 3.75 8.99942 3.75C8.6016 3.75 8.22007 3.90804 7.93876 4.18934C7.65746 4.47064 7.49942 4.85218 7.49942 5.25C7.49942 5.64782 7.65746 6.02936 7.93876 6.31066C8.22007 6.59196 8.6016 6.75 8.99942 6.75ZM4.71917 6.9825C4.58294 6.92962 4.43147 6.93183 4.29684 6.98867C4.16221 7.04551 4.05499 7.15251 3.99787 7.28702C3.94075 7.42153 3.93822 7.57299 3.99082 7.70934C4.04342 7.84568 4.14701 7.9562 4.27967 8.0175L4.28117 8.01825L4.28267 8.019L4.29017 8.022L4.31417 8.0325C4.456 8.09167 4.59903 8.14794 4.74317 8.20125C5.02817 8.31 5.42867 8.45475 5.88842 8.59875C6.62942 8.83275 7.56542 9.07875 8.43692 9.15975V10.0898C8.43692 10.4123 8.34392 10.7295 8.16917 11.0017L6.27617 13.9455C6.23618 14.0076 6.20883 14.0771 6.19567 14.1498C6.18251 14.2225 6.1838 14.2971 6.19947 14.3693C6.21514 14.4415 6.24488 14.51 6.28699 14.5707C6.32911 14.6314 6.38277 14.6833 6.44492 14.7233C6.50707 14.7632 6.57648 14.7906 6.6492 14.8038C6.72192 14.8169 6.79652 14.8156 6.86874 14.8C6.94097 14.7843 7.00939 14.7545 7.07012 14.7124C7.13085 14.6703 7.18268 14.6166 7.22267 14.5545L9.00017 11.79L10.7762 14.5545C10.8162 14.6166 10.868 14.6703 10.9287 14.7124C10.9894 14.7545 11.0579 14.7843 11.1301 14.8C11.2023 14.8156 11.2769 14.8169 11.3496 14.8038C11.4224 14.7906 11.4918 14.7632 11.5539 14.7233C11.6161 14.6833 11.6697 14.6314 11.7118 14.5707C11.754 14.51 11.7837 14.4415 11.7994 14.3693C11.815 14.2971 11.8163 14.2225 11.8032 14.1498C11.79 14.0771 11.7627 14.0076 11.7227 13.9455L9.82967 11.0017C9.65474 10.7295 9.5618 10.4126 9.56192 10.089V9.15975C10.4334 9.07875 11.3694 8.83275 12.1112 8.59875C12.643 8.43097 13.1679 8.24207 13.6847 8.0325L13.7094 8.022L13.7169 8.019L13.7184 8.01825C13.8533 7.95845 13.9593 7.84803 14.0136 7.71079C14.0679 7.57354 14.066 7.42048 14.0084 7.28459C13.9509 7.14871 13.8422 7.04089 13.7059 6.98438C13.5696 6.92786 13.4165 6.92719 13.2797 6.9825L13.2744 6.98475L13.2542 6.993L13.1717 7.02675C13.0977 7.05725 12.9927 7.09825 12.8567 7.14975C12.5867 7.2525 12.2079 7.38975 11.7737 7.52625C10.8902 7.80375 9.83267 8.0625 8.99942 8.0625C8.16617 8.0625 7.10942 7.80375 6.22592 7.52625C5.7257 7.36775 5.23183 7.18987 4.74542 6.993L4.72442 6.98475L4.71917 6.9825Z" fill="#80ABFE"/>
</svg>
