<svg width="18" height="18" viewBox="0 0 18 18" fill="none" xmlns="http://www.w3.org/2000/svg">
<path opacity="0.5" d="M1.5 9C1.5 4.85775 4.85775 1.5 9 1.5C13.1422 1.5 16.5 4.85775 16.5 9C16.5 13.1422 13.1422 16.5 9 16.5C4.85775 16.5 1.5 13.1422 1.5 9Z" fill="#80ABFE"/>
<path d="M8.41941 6.42673L6.90816 7.63048C6.27441 8.13523 5.95716 8.38798 6.01941 8.66923L6.02241 8.68348C6.09291 8.96323 6.49491 9.07123 7.29891 9.28648C7.74516 9.40648 7.96866 9.46648 8.07366 9.63523L8.07891 9.64423C8.18016 9.81598 8.12241 10.0305 8.00766 10.4595L7.97766 10.572C7.65816 11.7615 7.49916 12.3562 7.80591 12.5482C8.11266 12.7402 8.60091 12.3517 9.57816 11.5732L11.0894 10.3702C11.7239 9.86473 12.0404 9.61273 11.9789 9.33073L11.9759 9.31648C11.9047 9.03673 11.5034 8.92873 10.6994 8.71348C10.2532 8.59348 10.0297 8.53348 9.92466 8.36473L9.91941 8.35573C9.81816 8.18473 9.87591 7.97023 9.99066 7.54123L10.0207 7.42873C10.3394 6.23923 10.4992 5.64373 10.1924 5.45173C9.88566 5.25973 9.39666 5.64898 8.41941 6.42673Z" fill="#80ABFE"/>
</svg>
