<svg width="32" height="32" viewBox="0 0 32 32" fill="none" xmlns="http://www.w3.org/2000/svg">
<path opacity="0.5" d="M13.3334 26.6666H18.6667C23.6947 26.6666 26.2094 26.6666 27.7707 25.1039C29.332 23.5413 29.3334 21.0279 29.3334 15.9999C29.3334 15.4106 29.3307 13.8559 29.328 13.3333H2.66671C2.66405 13.8559 2.66671 15.4106 2.66671 15.9999C2.66671 21.0279 2.66671 23.5426 4.22805 25.1039C5.78938 26.6653 8.30671 26.6666 13.3334 26.6666Z" fill="#80ABFE"/>
<path d="M13.3266 5.33325H18.6733C23.7146 5.33325 26.236 5.33325 27.8013 6.82125C28.9293 7.89192 29.2453 9.43459 29.3333 11.9999V13.3333H2.66663V11.9999C2.75463 9.43325 3.07063 7.89325 4.19863 6.82125C5.76396 5.33325 8.28529 5.33325 13.3266 5.33325ZM16.6666 20.3333C16.4014 20.3333 16.1471 20.4386 15.9595 20.6261C15.772 20.8137 15.6666 21.068 15.6666 21.3333C15.6666 21.5985 15.772 21.8528 15.9595 22.0404C16.1471 22.2279 16.4014 22.3333 16.6666 22.3333H18.6666C18.9318 22.3333 19.1862 22.2279 19.3737 22.0404C19.5613 21.8528 19.6666 21.5985 19.6666 21.3333C19.6666 21.068 19.5613 20.8137 19.3737 20.6261C19.1862 20.4386 18.9318 20.3333 18.6666 20.3333H16.6666ZM7.99996 20.3333C7.73474 20.3333 7.48039 20.4386 7.29285 20.6261C7.10532 20.8137 6.99996 21.068 6.99996 21.3333C6.99996 21.5985 7.10532 21.8528 7.29285 22.0404C7.48039 22.2279 7.73474 22.3333 7.99996 22.3333H13.3333C13.5985 22.3333 13.8529 22.2279 14.0404 22.0404C14.2279 21.8528 14.3333 21.5985 14.3333 21.3333C14.3333 21.068 14.2279 20.8137 14.0404 20.6261C13.8529 20.4386 13.5985 20.3333 13.3333 20.3333H7.99996Z" fill="#80ABFE"/>
</svg>
