<svg width="24" height="24" viewBox="0 0 24 24" fill="none" xmlns="http://www.w3.org/2000/svg">
<path opacity="0.2" d="M10.5751 5.21697L3.51705 17C3.37163 17.252 3.29472 17.5377 3.29395 17.8287C3.29319 18.1197 3.3686 18.4058 3.51269 18.6586C3.65679 18.9114 3.86454 19.1221 4.1153 19.2697C4.36606 19.4173 4.65109 19.4967 4.94205 19.5H19.0581C19.3491 19.497 19.6343 19.4178 19.8853 19.2702C20.1362 19.1227 20.3441 18.912 20.4883 18.6591C20.6324 18.4062 20.7078 18.1199 20.7069 17.8288C20.706 17.5377 20.6288 17.252 20.4831 17L13.4261 5.21697C13.2776 4.9719 13.0685 4.76925 12.8189 4.6286C12.5692 4.48796 12.2876 4.41406 12.0011 4.41406C11.7145 4.41406 11.4329 4.48796 11.1832 4.6286C10.9336 4.76925 10.7245 4.9719 10.5761 5.21697" fill="#0157FE"/>
<path d="M12.001 3.91406C12.3735 3.91406 12.7399 4.0105 13.0645 4.19336C13.3482 4.35328 13.5917 4.57468 13.7774 4.84082L13.8535 4.95801L13.8555 4.95996L20.9121 16.7432L20.916 16.75C21.1054 17.0775 21.2058 17.4489 21.207 17.8271C21.2082 18.2055 21.1101 18.5776 20.9229 18.9062C20.7354 19.235 20.4649 19.5094 20.1387 19.7012C19.8125 19.8929 19.4418 19.9961 19.0635 20H4.93653C4.5583 19.9957 4.18731 19.8921 3.86134 19.7002C3.53554 19.5083 3.26537 19.2347 3.07813 18.9062C2.89083 18.5776 2.79296 18.2054 2.79395 17.8271C2.79499 17.449 2.89499 17.0776 3.08399 16.75L3.0879 16.7432L10.1465 4.95996L10.1514 4.95215C10.3441 4.63614 10.615 4.37515 10.9375 4.19336C11.262 4.01051 11.6285 3.91408 12.001 3.91406ZM12.001 4.91406C11.8005 4.91408 11.6034 4.96603 11.4287 5.06445C11.2542 5.16281 11.1078 5.30426 11.0039 5.47559C11.0024 5.478 10.9996 5.48004 10.9981 5.48242L3.9502 17.25L3.88282 17.3867C3.82481 17.5268 3.79435 17.6774 3.79395 17.8301C3.79343 18.0338 3.84641 18.2342 3.94727 18.4111C4.04814 18.588 4.19367 18.7356 4.36915 18.8389C4.54452 18.9421 4.74381 18.9976 4.94727 19H19.0527C19.2565 18.9979 19.4562 18.9421 19.6318 18.8389C19.8074 18.7356 19.9529 18.5881 20.0537 18.4111C20.1545 18.2342 20.2077 18.0337 20.207 17.8301C20.2063 17.6265 20.1518 17.4263 20.0498 17.25H20.0488L12.9981 5.47559C12.8942 5.30427 12.7478 5.1628 12.5732 5.06445C12.3986 4.96603 12.2015 4.91406 12.001 4.91406ZM12.0078 15.5C12.284 15.5 12.5078 15.7239 12.5078 16C12.5078 16.2761 12.284 16.5 12.0078 16.5H12C11.7239 16.5 11.5 16.2761 11.5 16C11.5 15.7239 11.7239 15.5 12 15.5H12.0078ZM11.5 13V10C11.5 9.72388 11.7239 9.50003 12 9.5C12.2761 9.5 12.5 9.72386 12.5 10V13C12.5 13.2761 12.2761 13.5 12 13.5C11.7239 13.5 11.5 13.2761 11.5 13Z" fill="#0157FE"/>
</svg>
