<svg width="24" height="24" viewBox="0 0 24 24" fill="none" xmlns="http://www.w3.org/2000/svg">
<path opacity="0.3" d="M12 22C17.523 22 22 17.523 22 12C22 6.477 17.523 2 12 2C6.477 2 2 6.477 2 12C2 13.6 2.376 15.112 3.043 16.453C3.221 16.809 3.28 17.216 3.177 17.601L2.582 19.827C2.52307 20.0473 2.52312 20.2792 2.58216 20.4995C2.64119 20.7197 2.75712 20.9206 2.91831 21.0819C3.07951 21.2432 3.2803 21.3593 3.50053 21.4184C3.72075 21.4776 3.95267 21.4778 4.173 21.419L6.399 20.823C6.78538 20.7254 7.19414 20.7727 7.548 20.956C8.93095 21.6446 10.4551 22.002 12 22Z" fill="#0157FE"/>
<path d="M12.75 8C12.75 7.80109 12.671 7.61032 12.5303 7.46967C12.3897 7.32902 12.1989 7.25 12 7.25C11.8011 7.25 11.6103 7.32902 11.4697 7.46967C11.329 7.61032 11.25 7.80109 11.25 8V8.01C10.161 8.285 9.25 9.143 9.25 10.333C9.25 11.79 10.615 12.75 12 12.75C12.824 12.75 13.25 13.283 13.25 13.667C13.25 14.051 12.824 14.583 12 14.583C11.176 14.583 10.75 14.051 10.75 13.667C10.75 13.4681 10.671 13.2773 10.5303 13.1367C10.3897 12.996 10.1989 12.917 10 12.917C9.80109 12.917 9.61032 12.996 9.46967 13.1367C9.32902 13.2773 9.25 13.4681 9.25 13.667C9.25 14.857 10.161 15.716 11.25 15.99V16C11.25 16.1989 11.329 16.3897 11.4697 16.5303C11.6103 16.671 11.8011 16.75 12 16.75C12.1989 16.75 12.3897 16.671 12.5303 16.5303C12.671 16.3897 12.75 16.1989 12.75 16V15.99C13.839 15.716 14.75 14.857 14.75 13.667C14.75 12.21 13.385 11.25 12 11.25C11.176 11.25 10.75 10.717 10.75 10.333C10.75 9.949 11.176 9.417 12 9.417C12.824 9.417 13.25 9.949 13.25 10.333C13.25 10.5319 13.329 10.7227 13.4697 10.8633C13.6103 11.004 13.8011 11.083 14 11.083C14.1989 11.083 14.3897 11.004 14.5303 10.8633C14.671 10.7227 14.75 10.5319 14.75 10.333C14.75 9.143 13.839 8.285 12.75 8.01V8Z" fill="#0157FE"/>
</svg>
