<svg width="24" height="24" viewBox="0 0 24 24" fill="none" xmlns="http://www.w3.org/2000/svg">
<path opacity="0.25" d="M3 10C3 8.114 3 7.172 3.586 6.586C4.172 6 5.114 6 7 6H17C18.886 6 19.828 6 20.414 6.586C21 7.172 21 8.114 21 10V14C21 15.886 21 16.828 20.414 17.414C19.828 18 18.886 18 17 18H7C5.114 18 4.172 18 3.586 17.414C3 16.828 3 15.886 3 14V10Z" fill="#0157FE"/>
<path d="M6 16C6.55228 16 7 15.5523 7 15C7 14.4477 6.55228 14 6 14C5.44772 14 5 14.4477 5 15C5 15.5523 5.44772 16 6 16Z" fill="#0157FE"/>
<path d="M3 9H21V11H3V9Z" fill="#0157FE"/>
</svg>
