<svg width="24" height="24" viewBox="0 0 24 24" fill="none" xmlns="http://www.w3.org/2000/svg">
<path opacity="0.3" d="M9.00003 20H15C16.885 20 17.828 20 18.414 19.414C18.885 18.943 18.977 18.24 18.995 17H5.00403C5.02203 18.24 5.11403 18.943 5.58503 19.414C6.17103 20 7.11403 20 9.00003 20Z" fill="#0157FE"/>
<path d="M11.25 6H9.00004C7.11404 6 6.17204 6 5.58604 6.586C5.00004 7.172 5.00004 8.114 5.00004 10V16C4.99938 16.3673 5.00071 16.7007 5.00404 17H18.996C18.9994 16.7007 19.0007 16.3673 19 16V10C19 8.114 19 7.172 18.414 6.586C17.828 6 16.886 6 15 6H12.75V10.973L13.43 10.179C13.4941 10.1041 13.5723 10.0426 13.6602 9.99802C13.748 9.95339 13.8438 9.9265 13.9421 9.91888C14.0403 9.91127 14.1391 9.92308 14.2328 9.95364C14.3264 9.9842 14.4132 10.0329 14.488 10.097C14.5629 10.1611 14.6244 10.2393 14.669 10.3271C14.7137 10.415 14.7406 10.5108 14.7482 10.609C14.7558 10.7073 14.744 10.806 14.7134 10.8997C14.6828 10.9934 14.6341 11.0801 14.57 11.155L12.57 13.488C12.4996 13.5703 12.4122 13.6364 12.3138 13.6818C12.2154 13.7271 12.1084 13.7506 12 13.7506C11.8917 13.7506 11.7847 13.7271 11.6863 13.6818C11.5879 13.6364 11.5005 13.5703 11.43 13.488L9.43004 11.155C9.36596 11.0801 9.31725 10.9934 9.28668 10.8997C9.25612 10.806 9.24431 10.7073 9.25192 10.609C9.25954 10.5108 9.28643 10.415 9.33106 10.3271C9.37569 10.2393 9.43719 10.1611 9.51204 10.097C9.5869 10.0329 9.67364 9.9842 9.76732 9.95364C9.861 9.92308 9.95978 9.91127 10.058 9.91888C10.1563 9.9265 10.2521 9.95339 10.3399 9.99802C10.4278 10.0426 10.506 10.1041 10.57 10.179L11.25 10.973V6Z" fill="#0157FE"/>
<path opacity="0.3" d="M18.111 3H5.89C3.74 3 2 4.8 2 7.02C2 8.925 3.28 10.52 5 10.935V10C5 8.114 5 7.172 5.586 6.586C6.172 6 7.114 6 9 6H15C16.886 6 17.828 6 18.414 6.586C19 7.172 19 8.114 19 10V10.935C20.72 10.52 22 8.925 22 7.02C22 4.8 20.259 3 18.111 3Z" fill="#0157FE"/>
</svg>
