<svg width="28" height="27" viewBox="0 0 28 27" fill="none" xmlns="http://www.w3.org/2000/svg">
<path d="M10.4 0C13.715 0 16.4 2.685 16.4 6C16.4 9.315 13.715 12 10.4 12C7.085 12 4.4 9.315 4.4 6C4.4 2.685 7.085 0 10.4 0ZM8.915 14.8H11.885C13.37 14.8 14.77 15.165 16 15.805V16.02C15.02 16.9 14.4 18.175 14.4 19.595V24.395C14.4 24.67 14.425 24.94 14.465 25.2H1.485C0.665 25.2 0 24.535 0 23.715C0 18.79 3.99 14.8 8.915 14.8ZM24 14.805C24 13.92 23.285 13.205 22.4 13.205C21.515 13.205 20.8 13.92 20.8 14.805V17.2H24V14.805ZM16.8 19.6C16.8 18.555 17.47 17.665 18.4 17.335V14.805C18.4 12.595 20.19 10.805 22.4 10.805C24.61 10.805 26.4 12.595 26.4 14.805V17.335C27.33 17.665 28 18.555 28 19.6V24.4C28 25.725 26.925 26.8 25.6 26.8H19.2C17.875 26.8 16.8 25.725 16.8 24.4V19.6Z" fill="white"/>
</svg>
