<svg width="24" height="24" viewBox="0 0 24 24" fill="none" xmlns="http://www.w3.org/2000/svg">
<path opacity="0.3" d="M2 12C2 7.286 2 4.929 3.464 3.464C4.93 2 7.286 2 12 2C16.714 2 19.071 2 20.535 3.464C22 4.93 22 7.286 22 12C22 16.714 22 19.071 20.535 20.535C19.072 22 16.714 22 12 22C7.286 22 4.929 22 3.464 20.535C2 19.072 2 16.714 2 12Z" fill="#0157FE"/>
<path d="M7.75 8C7.75 7.80109 7.67098 7.61032 7.53033 7.46967C7.38968 7.32902 7.19891 7.25 7 7.25C6.80109 7.25 6.61032 7.32902 6.46967 7.46967C6.32902 7.61032 6.25 7.80109 6.25 8V16C6.25 16.1989 6.32902 16.3897 6.46967 16.5303C6.61032 16.671 6.80109 16.75 7 16.75C7.19891 16.75 7.38968 16.671 7.53033 16.5303C7.67098 16.3897 7.75 16.1989 7.75 16V8ZM17 12.75C17.1989 12.75 17.3897 12.671 17.5303 12.5303C17.671 12.3897 17.75 12.1989 17.75 12C17.75 11.8011 17.671 11.6103 17.5303 11.4697C17.3897 11.329 17.1989 11.25 17 11.25H11.81L13.53 9.53C13.6625 9.38782 13.7346 9.19978 13.7312 9.00548C13.7277 8.81118 13.649 8.62579 13.5116 8.48838C13.3742 8.35097 13.1888 8.27225 12.9945 8.26882C12.8002 8.2654 12.6122 8.33752 12.47 8.47L9.47 11.47C9.32955 11.6106 9.25066 11.8012 9.25066 12C9.25066 12.1988 9.32955 12.3894 9.47 12.53L12.47 15.53C12.5387 15.6037 12.6215 15.6628 12.7135 15.7038C12.8055 15.7448 12.9048 15.7668 13.0055 15.7686C13.1062 15.7704 13.2062 15.7518 13.2996 15.7141C13.393 15.6764 13.4778 15.6203 13.549 15.549C13.6203 15.4778 13.6764 15.393 13.7141 15.2996C13.7518 15.2062 13.7704 15.1062 13.7686 15.0055C13.7668 14.9048 13.7448 14.8055 13.7038 14.7135C13.6628 14.6215 13.6037 14.5387 13.53 14.47L11.81 12.75H17Z" fill="#0157FE"/>
</svg>
