<svg width="18" height="18" viewBox="0 0 18 18" fill="none" xmlns="http://www.w3.org/2000/svg">
<path d="M11.625 5.625C11.625 5.96972 11.5571 6.31106 11.4252 6.62954C11.2933 6.94802 11.0999 7.2374 10.8562 7.48116C10.6124 7.72491 10.323 7.91827 10.0045 8.05018C9.68606 8.1821 9.34472 8.25 9 8.25C8.65528 8.25 8.31394 8.1821 7.99546 8.05018C7.67698 7.91827 7.3876 7.72491 7.14384 7.48116C6.90009 7.2374 6.70673 6.94802 6.57482 6.62954C6.4429 6.31106 6.375 5.96972 6.375 5.625C6.375 4.92881 6.65156 4.26113 7.14384 3.76884C7.63613 3.27656 8.30381 3 9 3C9.69619 3 10.3639 3.27656 10.8562 3.76884C11.3484 4.26113 11.625 4.92881 11.625 5.625Z" fill="#80ABFE"/>
<path opacity="0.4" d="M14.625 5.625C14.625 6.12228 14.4275 6.59919 14.0758 6.95083C13.7242 7.30246 13.2473 7.5 12.75 7.5C12.2527 7.5 11.7758 7.30246 11.4242 6.95083C11.0725 6.59919 10.875 6.12228 10.875 5.625C10.875 5.12772 11.0725 4.65081 11.4242 4.29917C11.7758 3.94754 12.2527 3.75 12.75 3.75C13.2473 3.75 13.7242 3.94754 14.0758 4.29917C14.4275 4.65081 14.625 5.12772 14.625 5.625ZM3.375 5.625C3.375 6.12228 3.57254 6.59919 3.92417 6.95083C4.27581 7.30246 4.75272 7.5 5.25 7.5C5.74728 7.5 6.22419 7.30246 6.57583 6.95083C6.92746 6.59919 7.125 6.12228 7.125 5.625C7.125 5.12772 6.92746 4.65081 6.57583 4.29917C6.22419 3.94754 5.74728 3.75 5.25 3.75C4.75272 3.75 4.27581 3.94754 3.92417 4.29917C3.57254 4.65081 3.375 5.12772 3.375 5.625Z" fill="#80ABFE"/>
<path d="M13.5 12.375C13.5 13.8247 11.4855 15 9 15C6.5145 15 4.5 13.8247 4.5 12.375C4.5 10.9253 6.5145 9.75 9 9.75C11.4855 9.75 13.5 10.9253 13.5 12.375Z" fill="#80ABFE"/>
<path opacity="0.4" d="M16.5 12.375C16.5 13.41 15.1575 14.25 13.5 14.25C11.8425 14.25 10.5 13.41 10.5 12.375C10.5 11.34 11.8425 10.5 13.5 10.5C15.1575 10.5 16.5 11.34 16.5 12.375ZM1.5 12.375C1.5 13.41 2.8425 14.25 4.5 14.25C6.1575 14.25 7.5 13.41 7.5 12.375C7.5 11.34 6.1575 10.5 4.5 10.5C2.8425 10.5 1.5 11.34 1.5 12.375Z" fill="#80ABFE"/>
</svg>
