<svg width="28" height="26" viewBox="0 0 28 26" fill="none" xmlns="http://www.w3.org/2000/svg">
<path d="M4 3C4 2.20435 4.31607 1.44129 4.87868 0.87868C5.44129 0.31607 6.20435 0 7 0L19.6667 0C20.4623 0 21.2254 0.31607 21.788 0.87868C22.3506 1.44129 22.6667 2.20435 22.6667 3V14.6667H28V19.6667C28 20.2357 27.8879 20.7992 27.6701 21.325C27.4524 21.8507 27.1332 22.3284 26.7308 22.7308C26.3284 23.1332 25.8507 23.4524 25.325 23.6701C24.7992 23.8879 24.2357 24 23.6667 24H15.9333C15.9778 23.784 16 23.5618 16 23.3333V18C16 17.1159 15.6488 16.2681 15.0237 15.643C14.3986 15.0179 13.5507 14.6667 12.6667 14.6667H4V3ZM22.6667 22H23.6667C24.2855 22 24.879 21.7542 25.3166 21.3166C25.7542 20.879 26 20.2855 26 19.6667V16.6667H22.6667V22ZM8.66667 6.33333C8.66667 6.88533 9.11467 7.33333 9.66667 7.33333H17C17.2652 7.33333 17.5196 7.22798 17.7071 7.04044C17.8946 6.8529 18 6.59855 18 6.33333C18 6.06812 17.8946 5.81376 17.7071 5.62623C17.5196 5.43869 17.2652 5.33333 17 5.33333H9.66667C9.40145 5.33333 9.1471 5.43869 8.95956 5.62623C8.77202 5.81376 8.66667 6.06812 8.66667 6.33333ZM9.66667 10.6667C9.40145 10.6667 9.1471 10.772 8.95956 10.9596C8.77202 11.1471 8.66667 11.4015 8.66667 11.6667C8.66667 11.9319 8.77202 12.1862 8.95956 12.3738C9.1471 12.5613 9.40145 12.6667 9.66667 12.6667H17C17.2652 12.6667 17.5196 12.5613 17.7071 12.3738C17.8946 12.1862 18 11.9319 18 11.6667C18 11.4015 17.8946 11.1471 17.7071 10.9596C17.5196 10.772 17.2652 10.6667 17 10.6667H9.66667ZM2 16C1.46957 16 0.960859 16.2107 0.585787 16.5858C0.210714 16.9609 0 17.4696 0 18L0 23.3333C0 23.8638 0.210714 24.3725 0.585787 24.7475C0.960859 25.1226 1.46957 25.3333 2 25.3333H12.6667C13.1971 25.3333 13.7058 25.1226 14.0809 24.7475C14.456 24.3725 14.6667 23.8638 14.6667 23.3333V18C14.6667 17.4696 14.456 16.9609 14.0809 16.5858C13.7058 16.2107 13.1971 16 12.6667 16H2ZM12 17.3333C12 17.687 12.1405 18.0261 12.3905 18.2761C12.6406 18.5262 12.9797 18.6667 13.3333 18.6667V20C12.6261 20 11.9478 19.719 11.4477 19.219C10.9476 18.7189 10.6667 18.0406 10.6667 17.3333H12ZM10.6667 24C10.6667 23.2928 10.9476 22.6145 11.4477 22.1144C11.9478 21.6143 12.6261 21.3333 13.3333 21.3333V22.6667C12.9797 22.6667 12.6406 22.8071 12.3905 23.0572C12.1405 23.3072 12 23.6464 12 24H10.6667ZM1.33333 18.6667C1.68696 18.6667 2.02609 18.5262 2.27614 18.2761C2.52619 18.0261 2.66667 17.687 2.66667 17.3333H4C4 18.0406 3.71905 18.7189 3.21895 19.219C2.71885 19.719 2.04058 20 1.33333 20V18.6667ZM1.33333 21.3333C2.04058 21.3333 2.71885 21.6143 3.21895 22.1144C3.71905 22.6145 4 23.2928 4 24H2.66667C2.66667 23.6464 2.52619 23.3072 2.27614 23.0572C2.02609 22.8071 1.68696 22.6667 1.33333 22.6667V21.3333ZM7.33333 18.3333C7.95217 18.3333 8.54566 18.5792 8.98325 19.0168C9.42083 19.4543 9.66667 20.0478 9.66667 20.6667C9.66667 21.2855 9.42083 21.879 8.98325 22.3166C8.54566 22.7542 7.95217 23 7.33333 23C6.7145 23 6.121 22.7542 5.68342 22.3166C5.24583 21.879 5 21.2855 5 20.6667C5 20.0478 5.24583 19.4543 5.68342 19.0168C6.121 18.5792 6.7145 18.3333 7.33333 18.3333Z" fill="white"/>
</svg>
