<svg width="28" height="28" viewBox="0 0 28 28" fill="none" xmlns="http://www.w3.org/2000/svg">
<path opacity="0.5" d="M23.3327 13.9998C23.3327 16.4752 22.3494 18.8492 20.599 20.5995C18.8487 22.3498 16.4747 23.3332 13.9994 23.3332C11.524 23.3332 9.15003 22.3498 7.39969 20.5995C5.64935 18.8492 4.66602 16.4752 4.66602 13.9998C4.66602 11.5245 5.64935 9.15051 7.39969 7.40017C9.15003 5.64983 11.524 4.6665 13.9994 4.6665C16.4747 4.6665 18.8487 5.64983 20.599 7.40017C22.3494 9.15051 23.3327 11.5245 23.3327 13.9998Z" fill="#111111"/>
<path d="M14.0007 9.93083C12.9214 9.93083 11.8863 10.3596 11.1232 11.1227C10.3601 11.8859 9.93132 12.9209 9.93132 14.0002C9.93132 15.0794 10.3601 16.1145 11.1232 16.8776C11.8863 17.6408 12.9214 18.0695 14.0007 18.0695C15.0799 18.0695 16.115 17.6408 16.8781 16.8776C17.6413 16.1145 18.07 15.0794 18.07 14.0002C18.07 12.9209 17.6413 11.8859 16.8781 11.1227C16.115 10.3596 15.0799 9.93083 14.0007 9.93083ZM14.8757 2.3335C14.8757 2.10143 14.7835 1.87887 14.6194 1.71478C14.4553 1.55068 14.2327 1.4585 14.0007 1.4585C13.7686 1.4585 13.546 1.55068 13.3819 1.71478C13.2178 1.87887 13.1257 2.10143 13.1257 2.3335V4.70766C13.7077 4.65285 14.2936 4.65285 14.8757 4.70766V2.3335ZM23.2932 14.8752C23.348 14.2931 23.348 13.7072 23.2932 13.1252H25.6673C25.8994 13.1252 26.1219 13.2174 26.286 13.3814C26.4501 13.5455 26.5423 13.7681 26.5423 14.0002C26.5423 14.2322 26.4501 14.4548 26.286 14.6189C26.1219 14.783 25.8994 14.8752 25.6673 14.8752H23.2932ZM13.1257 23.2927C13.7077 23.3475 14.2936 23.3475 14.8757 23.2927V25.6668C14.8757 25.8989 14.7835 26.1215 14.6194 26.2856C14.4553 26.4496 14.2327 26.5418 14.0007 26.5418C13.7686 26.5418 13.546 26.4496 13.3819 26.2856C13.2178 26.1215 13.1257 25.8989 13.1257 25.6668V23.2927ZM4.70815 13.1252C4.65334 13.7072 4.65334 14.2931 4.70815 14.8752H2.33398C2.10192 14.8752 1.87936 14.783 1.71527 14.6189C1.55117 14.4548 1.45898 14.2322 1.45898 14.0002C1.45898 13.7681 1.55117 13.5455 1.71527 13.3814C1.87936 13.2174 2.10192 13.1252 2.33398 13.1252H4.70815Z" fill="#111111"/>
</svg>
