<svg width="15" height="15" viewBox="0 0 15 15" fill="none" xmlns="http://www.w3.org/2000/svg">
<path fill-rule="evenodd" clip-rule="evenodd" d="M7.49999 5.2481e-08C6.90674 5.2481e-08 6.33749 0.2355 5.91749 0.6555L5.24774 1.32525C5.10854 1.46253 4.92124 1.54004 4.72574 1.54125H3.77999C3.48597 1.54115 3.1948 1.59899 2.92314 1.71146C2.65148 1.82394 2.40464 1.98884 2.19674 2.19674C1.98883 2.40465 1.82393 2.65149 1.71145 2.92315C1.59898 3.19481 1.54114 3.48598 1.54124 3.78V4.7265C1.54003 4.922 1.46252 5.1093 1.32524 5.2485L0.65549 5.91825C0.235787 6.33796 0 6.9072 0 7.50075C0 8.0943 0.235787 8.66354 0.65549 9.08325L1.32524 9.753C1.46252 9.8922 1.54003 10.0795 1.54124 10.275V11.2215C1.54124 11.8151 1.77703 12.3843 2.19674 12.804C2.61644 13.2237 3.18569 13.4595 3.77924 13.4595H4.72574C4.92149 13.4595 5.10974 13.5375 5.24774 13.6755L5.91749 14.3453C6.3372 14.765 6.90644 15.0007 7.49999 15.0007C8.09354 15.0007 8.66278 14.765 9.08249 14.3453L9.75224 13.6755C9.89144 13.5382 10.0787 13.4607 10.2742 13.4595H11.2207C11.8143 13.4595 12.3835 13.2237 12.8032 12.804C13.223 12.3843 13.4587 11.8151 13.4587 11.2215V10.275C13.4587 10.0792 13.5367 9.891 13.6747 9.753L14.3445 9.08325C14.7642 8.66354 15 8.0943 15 7.50075C15 6.9072 14.7642 6.33796 14.3445 5.91825L13.6747 5.2485C13.5375 5.1093 13.46 4.922 13.4587 4.7265V3.78C13.4587 3.18645 13.223 2.6172 12.8032 2.19749C12.3835 1.77779 11.8143 1.542 11.2207 1.542H10.2742C10.0787 1.54079 9.89144 1.46328 9.75224 1.326L9.08249 0.65625C8.87483 0.448164 8.62817 0.283089 8.35662 0.170479C8.08506 0.0578685 7.79396 -6.36516e-05 7.49999 5.2481e-08ZM10.7942 6.02313C10.8674 5.95433 10.9261 5.87152 10.9667 5.7796C11.0074 5.68768 11.0291 5.58853 11.0307 5.48805C11.0322 5.38756 11.0136 5.28779 10.9758 5.19465C10.9381 5.10152 10.882 5.01692 10.8109 4.94588C10.7398 4.87485 10.6552 4.81882 10.562 4.78113C10.4688 4.74345 10.3691 4.72487 10.2686 4.7265C10.1681 4.72813 10.069 4.74994 9.97707 4.79063C9.88518 4.83132 9.8024 4.89007 9.73366 4.96338L6.54391 8.15313L5.58616 7.19538C5.44553 7.05465 5.25475 6.97554 5.0558 6.97547C4.85685 6.9754 4.66602 7.05437 4.52529 7.195C4.38455 7.33563 4.30545 7.52641 4.30538 7.72536C4.30531 7.92431 4.38428 8.11515 4.52491 8.25588L6.01366 9.74388C6.15431 9.88448 6.34504 9.96347 6.54391 9.96347C6.74278 9.96347 6.93351 9.88448 7.07416 9.74388L10.7942 6.02388V6.02313Z" fill="#23AA25"/>
</svg>
