<svg width="28" height="28" viewBox="0 0 28 28" fill="none" xmlns="http://www.w3.org/2000/svg">
<path opacity="0.5" fill-rule="evenodd" clip-rule="evenodd" d="M9.912 23.3767C6.96267 21.1775 3.5 18.5934 3.5 14.1157C3.5 9.17253 9.275 5.6667 14 10.4197C18.725 5.6667 24.5 9.17253 24.5 14.1157C24.5 18.5945 21.0373 21.1775 18.088 23.3767C17.7816 23.6054 17.4821 23.8301 17.1897 24.051C16.1 24.8829 15.05 25.6669 14 25.6669C12.95 25.6669 11.9 24.8829 10.8103 24.051C10.5179 23.8294 10.2184 23.6046 9.912 23.3767Z" fill="#111111"/>
<path d="M13.9993 13.1252C14.2314 13.1252 14.454 13.2173 14.6181 13.3814C14.7822 13.5455 14.8743 13.7681 14.8743 14.0002V16.9168C14.8743 17.1489 14.7822 17.3714 14.6181 17.5355C14.454 17.6996 14.2314 17.7918 13.9993 17.7918C13.7673 17.7918 13.5447 17.6996 13.3806 17.5355C13.2165 17.3714 13.1243 17.1489 13.1243 16.9168V14.0002C13.1243 13.7681 13.2165 13.5455 13.3806 13.3814C13.5447 13.2173 13.7673 13.1252 13.9993 13.1252ZM9.04102 8.16683C9.04102 6.41099 9.56252 5.20466 10.3698 4.4335C11.183 3.65416 12.3998 3.2085 13.9993 3.2085C15.5977 3.2085 16.8157 3.65416 17.6288 4.4335C18.4362 5.20466 18.9577 6.41099 18.9577 8.16683C19.5557 8.18052 20.1472 8.29525 20.7077 8.50399V8.16683C20.7077 6.05633 20.0707 4.34599 18.8387 3.16766C17.6137 1.99633 15.915 1.4585 13.9993 1.4585C12.0837 1.4585 10.385 1.99633 9.16002 3.16766C7.92802 4.34599 7.29102 6.05633 7.29102 8.16683V8.50516C7.85141 8.29562 8.4429 8.18127 9.04102 8.16683Z" fill="#111111"/>
</svg>
