<svg width="18" height="18" viewBox="0 0 18 18" fill="none" xmlns="http://www.w3.org/2000/svg">
<path fill-rule="evenodd" clip-rule="evenodd" d="M16.149 8.68939L15.5625 8.21989V15.9374H16.5C16.6492 15.9374 16.7923 15.9967 16.8977 16.1021C17.0032 16.2076 17.0625 16.3507 17.0625 16.4999C17.0625 16.6491 17.0032 16.7921 16.8977 16.8976C16.7923 17.0031 16.6492 17.0624 16.5 17.0624H1.5C1.35082 17.0624 1.20774 17.0031 1.10225 16.8976C0.996763 16.7921 0.9375 16.6491 0.9375 16.4999C0.9375 16.3507 0.996763 16.2076 1.10225 16.1021C1.20774 15.9967 1.35082 15.9374 1.5 15.9374H2.4375V8.21989L1.85175 8.68939C1.79403 8.73553 1.72779 8.76986 1.65681 8.7904C1.58583 8.81094 1.5115 8.81731 1.43806 8.80912C1.36462 8.80094 1.29351 8.77837 1.2288 8.74271C1.16408 8.70704 1.10702 8.65898 1.06087 8.60127C1.01473 8.54355 0.980408 8.47731 0.959865 8.40633C0.939321 8.33535 0.932959 8.26102 0.941142 8.18758C0.949325 8.11414 0.971893 8.04303 1.00756 7.97831C1.04322 7.91359 1.09128 7.85653 1.149 7.81039L7.24275 2.93539C7.74149 2.53629 8.36123 2.31885 9 2.31885C9.63877 2.31885 10.2585 2.53629 10.7572 2.93539L16.851 7.81039C16.9097 7.85614 16.9588 7.91309 16.9953 7.97794C17.0318 8.04279 17.0551 8.11424 17.0639 8.18816C17.0726 8.26208 17.0666 8.337 17.0461 8.40857C17.0257 8.48014 16.9912 8.54694 16.9448 8.6051C16.8983 8.66326 16.8408 8.71163 16.7755 8.74739C16.7102 8.78315 16.6385 8.80561 16.5645 8.81345C16.4905 8.82129 16.4156 8.81436 16.3443 8.79306C16.273 8.77177 16.2066 8.73653 16.149 8.68939ZM9 5.06239C8.45299 5.06239 7.92839 5.27969 7.54159 5.66648C7.1548 6.05328 6.9375 6.57788 6.9375 7.12489C6.9375 7.6719 7.1548 8.1965 7.54159 8.5833C7.92839 8.97009 8.45299 9.18739 9 9.18739C9.54701 9.18739 10.0716 8.97009 10.4584 8.5833C10.8452 8.1965 11.0625 7.6719 11.0625 7.12489C11.0625 6.57788 10.8452 6.05328 10.4584 5.66648C10.0716 5.27969 9.54701 5.06239 9 5.06239ZM10.3095 9.98389C9.96525 9.93739 9.5355 9.93739 9.03675 9.93739H8.96325C8.4645 9.93739 8.03475 9.93739 7.6905 9.98389C7.32225 10.0334 6.96825 10.1451 6.68175 10.4316C6.39525 10.7181 6.2835 11.0721 6.234 11.4404C6.1875 11.7846 6.1875 12.2144 6.1875 12.7131V15.9374H11.8125V12.6201C11.8125 12.1611 11.8095 11.7629 11.766 11.4404C11.7165 11.0721 11.6047 10.7181 11.3182 10.4316C11.0317 10.1451 10.6785 10.0334 10.3095 9.98389Z" fill="#80ABFE"/>
<g opacity="0.5">
<path d="M8.0625 7.125C8.0625 6.87636 8.16127 6.6379 8.33709 6.46209C8.5129 6.28627 8.75136 6.1875 9 6.1875C9.24864 6.1875 9.4871 6.28627 9.66291 6.46209C9.83873 6.6379 9.9375 6.87636 9.9375 7.125C9.9375 7.37364 9.83873 7.6121 9.66291 7.78791C9.4871 7.96373 9.24864 8.0625 9 8.0625C8.75136 8.0625 8.5129 7.96373 8.33709 7.78791C8.16127 7.6121 8.0625 7.37364 8.0625 7.125Z" fill="#80ABFE"/>
<path d="M8.0625 7.125C8.0625 6.87636 8.16127 6.6379 8.33709 6.46209C8.5129 6.28627 8.75136 6.1875 9 6.1875C9.24864 6.1875 9.4871 6.28627 9.66291 6.46209C9.83873 6.6379 9.9375 6.87636 9.9375 7.125C9.9375 7.37364 9.83873 7.6121 9.66291 7.78791C9.4871 7.96373 9.24864 8.0625 9 8.0625C8.75136 8.0625 8.5129 7.96373 8.33709 7.78791C8.16127 7.6121 8.0625 7.37364 8.0625 7.125Z" fill="#80ABFE"/>
</g>
<path opacity="0.5" d="M9.0375 9.9375C9.5355 9.9375 9.96525 9.9375 10.3095 9.984C10.6785 10.0335 11.0317 10.1453 11.3182 10.4318C11.6047 10.7183 11.7165 11.0715 11.766 11.4405C11.8095 11.763 11.8125 12.1605 11.8125 12.6202V15.9375H6.1875V12.7125C6.1875 12.2145 6.1875 11.7847 6.234 11.4405C6.2835 11.0715 6.39525 10.7183 6.68175 10.4318C6.96825 10.1453 7.32225 10.0335 7.6905 9.984C8.03475 9.9375 8.4645 9.9375 8.96325 9.9375H9.0375ZM12 2.25H13.875C13.9745 2.25 14.0698 2.28951 14.1402 2.35984C14.2105 2.43016 14.25 2.52554 14.25 2.625V5.73L11.625 3.63V2.625C11.625 2.52554 11.6645 2.43016 11.7348 2.35984C11.8052 2.28951 11.9005 2.25 12 2.25Z" fill="#80ABFE"/>
</svg>
