<svg width="24" height="24" viewBox="0 0 24 24" fill="none" xmlns="http://www.w3.org/2000/svg">
<path opacity="0.3" d="M12 1.99902C17.524 1.99902 22.002 6.47702 22.002 12.001C22.002 17.524 17.524 22.002 12 22.002C6.476 22.002 2 17.524 2 12.001C1.999 6.47702 6.476 1.99902 12 1.99902Z" fill="#0157FE"/>
<path d="M12.001 6.49998C11.8336 6.49539 11.6671 6.5244 11.5112 6.58529C11.3552 6.64618 11.2131 6.73772 11.0932 6.8545C10.9732 6.97127 10.878 7.11091 10.8129 7.26516C10.7479 7.4194 10.7145 7.58512 10.7146 7.75251C10.7147 7.9199 10.7484 8.08557 10.8137 8.23971C10.879 8.39385 10.9745 8.53334 11.0946 8.64992C11.2147 8.76651 11.357 8.85782 11.513 8.91846C11.669 8.97911 11.8356 9.00785 12.003 9.00298C12.3288 8.99339 12.638 8.85713 12.8649 8.62316C13.0918 8.38919 13.2185 8.07596 13.2181 7.75003C13.2177 7.4241 13.0902 7.11117 12.8628 6.87774C12.6353 6.64431 12.3258 6.5088 12 6.49998H12.001ZM11.996 10.249C11.7509 10.2493 11.5145 10.3396 11.3316 10.5028C11.1487 10.6659 11.0321 10.8905 11.004 11.134L10.997 11.25L11.001 16.752L11.007 16.869C11.0352 17.1129 11.1521 17.3379 11.3355 17.5011C11.5188 17.6643 11.7559 17.7544 12.0014 17.7542C12.2469 17.7539 12.4837 17.6634 12.6667 17.4998C12.8498 17.3361 12.9663 17.1109 12.994 16.867L13 16.75L12.996 11.249L12.989 11.132C12.9601 10.8887 12.8429 10.6646 12.6597 10.502C12.4764 10.3394 12.2399 10.2497 11.995 10.25L11.996 10.249Z" fill="#0157FE"/>
</svg>
