<svg width="28" height="28" viewBox="0 0 28 28" fill="none" xmlns="http://www.w3.org/2000/svg">
<path fill-rule="evenodd" clip-rule="evenodd" d="M15.2957 15.7499C14.9346 15.4417 14.4755 15.2725 14.0007 15.2725C13.526 15.2725 13.0669 15.4417 12.7057 15.7499C12.3867 16.0228 11.9892 16.1875 11.5706 16.2201C11.0976 16.2577 10.6536 16.4626 10.3181 16.7981C9.98264 17.1336 9.7777 17.5776 9.74007 18.0506C9.70741 18.4694 9.54174 18.8672 9.26991 19.1857C8.96206 19.5468 8.79297 20.0057 8.79297 20.4801C8.79297 20.9546 8.96206 21.4135 9.26991 21.7746C9.54284 22.0936 9.70746 22.4911 9.74007 22.9097C9.77747 23.3831 9.98246 23.8275 10.3182 24.1633C10.6539 24.499 11.0984 24.704 11.5717 24.7414C11.9894 24.7741 12.3872 24.9386 12.7069 25.2104C13.0679 25.5179 13.5265 25.6868 14.0007 25.6868C14.4749 25.6868 14.9336 25.5179 15.2946 25.2104C15.6137 24.9375 16.0111 24.7728 16.4297 24.7402C16.9029 24.7029 17.3472 24.498 17.6829 24.1625C18.0186 23.827 18.2237 23.3829 18.2614 22.9097C18.2941 22.4921 18.4586 22.0931 18.7304 21.7746C19.0383 21.4135 19.2073 20.9546 19.2073 20.4801C19.2073 20.0057 19.0383 19.5468 18.7304 19.1857C18.4575 18.8666 18.2929 18.4692 18.2602 18.0506C18.2226 17.5776 18.0177 17.1336 17.6822 16.7981C17.3467 16.4626 16.9027 16.2577 16.4297 16.2201C16.0111 16.1875 15.6148 16.0228 15.2957 15.7499ZM16.3469 19.9534C16.4309 19.875 16.4987 19.7807 16.5463 19.6761C16.5939 19.5715 16.6205 19.4585 16.6244 19.3436C16.6284 19.2287 16.6097 19.1142 16.5694 19.0065C16.5291 18.8988 16.4679 18.8002 16.3895 18.7161C16.311 18.6321 16.2168 18.5644 16.1122 18.5167C16.0076 18.4691 15.8946 18.4426 15.7797 18.4386C15.6648 18.4347 15.5503 18.4534 15.4426 18.4937C15.3349 18.534 15.2363 18.5951 15.1522 18.6736L13.2506 20.4504L12.8469 20.0736C12.6772 19.9151 12.4515 19.8306 12.2195 19.8386C11.9874 19.8466 11.7681 19.9464 11.6097 20.1161C11.4512 20.2859 11.3667 20.5116 11.3747 20.7436C11.3827 20.9756 11.4825 21.195 11.6522 21.3534L12.6521 22.2867C12.8141 22.4381 13.0276 22.5223 13.2494 22.5223C13.4712 22.5223 13.6847 22.4381 13.8467 22.2867L16.3469 19.9534Z" fill="#111111"/>
<path opacity="0.5" d="M2.33398 14.0002V9.3335C2.33398 6.03416 2.33398 4.38333 3.35948 3.359C4.38382 2.3335 6.03465 2.3335 9.33398 2.3335H18.6673C21.9667 2.3335 23.6175 2.3335 24.6418 3.359C25.6673 4.38333 25.6673 6.03416 25.6673 9.3335V14.0002C25.6673 17.2995 25.6673 18.9503 24.6418 19.9747C23.6677 20.95 22.1265 20.9978 19.1387 21.0002C19.223 20.6873 19.2299 20.3587 19.1588 20.0426C19.0876 19.7265 18.9406 19.4325 18.7303 19.186C18.4574 18.8669 18.2928 18.4695 18.2602 18.0508C18.2225 17.5779 18.0176 17.1338 17.6821 16.7984C17.3466 16.4629 16.9026 16.258 16.4297 16.2203C16.011 16.1877 15.6136 16.0231 15.2945 15.7502C14.9335 15.4423 14.4745 15.2732 14.0001 15.2732C13.5256 15.2732 13.0667 15.4423 12.7057 15.7502C12.3866 16.0231 11.9891 16.1877 11.5705 16.2203C11.0975 16.258 10.6535 16.4629 10.318 16.7984C9.98255 17.1338 9.77761 17.5779 9.73998 18.0508C9.70732 18.4697 9.54165 18.8675 9.26982 19.186C9.05956 19.4325 8.9125 19.7265 8.84135 20.0426C8.77021 20.3587 8.77712 20.6873 8.86148 21.0002C5.87482 20.9978 4.33482 20.95 3.35948 19.9747C2.33398 18.9503 2.33398 17.2995 2.33398 14.0002Z" fill="#111111"/>
<path d="M9.62435 7C9.62435 6.76794 9.71654 6.54538 9.88063 6.38128C10.0447 6.21719 10.2673 6.125 10.4993 6.125H17.4993C17.7314 6.125 17.954 6.21719 18.1181 6.38128C18.2822 6.54538 18.3743 6.76794 18.3743 7C18.3743 7.23206 18.2822 7.45462 18.1181 7.61872C17.954 7.78281 17.7314 7.875 17.4993 7.875H10.4993C10.2673 7.875 10.0447 7.78281 9.88063 7.61872C9.71654 7.45462 9.62435 7.23206 9.62435 7ZM8.16602 10.2083C7.93395 10.2083 7.71139 10.3005 7.5473 10.4646C7.3832 10.6287 7.29102 10.8513 7.29102 11.0833C7.29102 11.3154 7.3832 11.538 7.5473 11.7021C7.71139 11.8661 7.93395 11.9583 8.16602 11.9583H19.8327C20.0647 11.9583 20.2873 11.8661 20.4514 11.7021C20.6155 11.538 20.7077 11.3154 20.7077 11.0833C20.7077 10.8513 20.6155 10.6287 20.4514 10.4646C20.2873 10.3005 20.0647 10.2083 19.8327 10.2083H8.16602Z" fill="#111111"/>
</svg>
