<svg width="22" height="22" viewBox="0 0 22 22" fill="none" xmlns="http://www.w3.org/2000/svg">
<path d="M12.0507 0.2376V2.65118C12.0507 2.78825 11.9915 2.91936 11.8878 3.01173L4.41247 9.53437L21.0963 9.53437C21.2267 9.53437 21.3333 9.64164 21.3333 9.77275V11.5606C21.3333 11.6917 21.2267 11.799 21.0963 11.799H4.41247L11.8878 18.3216C11.9915 18.411 12.0507 18.5421 12.0507 18.6821V21.0957C12.0507 21.2984 11.8107 21.4086 11.6596 21.2745L0.326693 11.3848C0.224145 11.2954 0.141901 11.1849 0.0855357 11.0607C0.02917 10.9366 -5.96594e-09 10.8017 0 10.6652C5.96594e-09 10.5287 0.02917 10.3938 0.0855357 10.2696C0.141901 10.1455 0.224145 10.035 0.326693 9.94557L11.6596 0.0588161C11.8137 -0.0752719 12.0507 0.0349782 12.0507 0.2376Z" fill="black"/>
</svg>
