<svg width="17" height="17" viewBox="0 0 17 17" fill="none" xmlns="http://www.w3.org/2000/svg">
<path d="M8.14167 3.33333C9.13057 3.33333 10.0973 3.62658 10.9195 4.17599C11.7418 4.72539 12.3826 5.50629 12.7611 6.41992C13.1395 7.33355 13.2385 8.33888 13.0456 9.30878C12.8527 10.2787 12.3765 11.1696 11.6772 11.8689C10.9779 12.5681 10.087 13.0443 9.11712 13.2373C8.14721 13.4302 7.14188 13.3312 6.22825 12.9527C5.31462 12.5743 4.53373 11.9334 3.98432 11.1112C3.43491 10.2889 3.14167 9.32224 3.14167 8.33333L3.145 8.14583C3.19351 6.85309 3.74118 5.62947 4.67294 4.73205C5.6047 3.83464 6.84802 3.33329 8.14167 3.33333ZM8.14167 6.66667C7.72119 6.66653 7.31619 6.82534 7.00788 7.11125C6.69956 7.39716 6.5107 7.78904 6.47917 8.20833L6.475 8.33333C6.475 8.66297 6.57275 8.9852 6.75588 9.25928C6.93902 9.53337 7.19932 9.74699 7.50386 9.87313C7.8084 9.99928 8.14351 10.0323 8.46682 9.96798C8.79012 9.90367 9.08709 9.74493 9.32018 9.51184C9.55326 9.27876 9.712 8.98178 9.77631 8.65848C9.84062 8.33518 9.80761 8.00007 9.68147 7.69553C9.55532 7.39098 9.3417 7.13069 9.06762 6.94755C8.79353 6.76441 8.4713 6.66667 8.14167 6.66667ZM11.3917 14.2583C11.5958 14.2584 11.7928 14.3333 11.9453 14.4689C12.0978 14.6046 12.1953 14.7915 12.2192 14.9942L12.225 15.1C12.2248 15.3124 12.1434 15.5167 11.9976 15.6711C11.8518 15.8256 11.6525 15.9185 11.4405 15.931C11.2285 15.9434 11.0197 15.8744 10.8568 15.7381C10.6939 15.6018 10.5893 15.4084 10.5642 15.1975L10.5583 15.0917C10.5583 14.8707 10.6461 14.6587 10.8024 14.5024C10.9587 14.3461 11.1707 14.2583 11.3917 14.2583ZM14.0083 12.175C14.2124 12.175 14.4094 12.25 14.562 12.3856C14.7145 12.5212 14.812 12.7081 14.8358 12.9108L14.8417 13.0167C14.8414 13.2291 14.7601 13.4334 14.6143 13.5878C14.4685 13.7423 14.2692 13.8352 14.0572 13.8476C13.8451 13.8601 13.6363 13.7911 13.4735 13.6548C13.3106 13.5185 13.2059 13.3251 13.1808 13.1142L13.175 13.0083C13.175 12.7873 13.2628 12.5754 13.4191 12.4191C13.5754 12.2628 13.7873 12.175 14.0083 12.175ZM15.45 9.16667C15.6541 9.16669 15.8511 9.24163 16.0036 9.37726C16.1562 9.51289 16.2536 9.69979 16.2775 9.9025L16.2833 10.0083C16.2831 10.2207 16.2018 10.425 16.056 10.5795C15.9102 10.7339 15.7109 10.8269 15.4988 10.8393C15.2868 10.8518 15.078 10.7828 14.9151 10.6464C14.7523 10.5101 14.6476 10.3167 14.6225 10.1058L14.6167 10C14.6167 9.77899 14.7045 9.56702 14.8607 9.41074C15.017 9.25446 15.229 9.16667 15.45 9.16667ZM15.45 5.83333C15.6541 5.83336 15.8511 5.9083 16.0036 6.04393C16.1562 6.17956 16.2536 6.36646 16.2775 6.56917L16.2833 6.675C16.2831 6.8874 16.2018 7.09169 16.056 7.24614C15.9102 7.40059 15.7109 7.49353 15.4988 7.50598C15.2868 7.51842 15.078 7.44944 14.9151 7.31311C14.7523 7.17679 14.6476 6.98341 14.6225 6.7725L14.6167 6.66667C14.6167 6.44565 14.7045 6.23369 14.8607 6.07741C15.017 5.92113 15.229 5.83333 15.45 5.83333ZM14.0083 2.825C14.2293 2.825 14.4413 2.9128 14.5976 3.06908C14.7539 3.22536 14.8417 3.43732 14.8417 3.65833C14.8422 3.76777 14.8212 3.87624 14.7798 3.97755C14.7385 4.07887 14.6775 4.17104 14.6005 4.24881C14.445 4.40587 14.2335 4.49473 14.0125 4.49583C13.9031 4.49638 13.7946 4.47537 13.6933 4.43399C13.592 4.39262 13.4998 4.3317 13.422 4.2547C13.265 4.0992 13.1761 3.88768 13.175 3.66667C13.175 3.19833 13.5483 2.825 14.0083 2.825ZM11.3917 0.741667C11.6127 0.741667 11.8246 0.829464 11.9809 0.985744C12.1372 1.14202 12.225 1.35399 12.225 1.575C12.2255 1.68443 12.2045 1.79291 12.1632 1.89422C12.1218 1.99553 12.0609 2.08771 11.9839 2.16548C11.9069 2.24325 11.8153 2.30509 11.7144 2.34747C11.6135 2.38986 11.5053 2.41195 11.3958 2.4125C11.2864 2.41305 11.1779 2.39203 11.0766 2.35066C10.9753 2.30929 10.8831 2.24836 10.8054 2.17137C10.7276 2.09437 10.6657 2.00281 10.6234 1.90192C10.581 1.80102 10.5589 1.69277 10.5583 1.58333C10.5583 1.115 10.9317 0.741667 11.3917 0.741667ZM8.14167 0C8.36268 0 8.57464 0.0877973 8.73092 0.244078C8.8872 0.400358 8.975 0.61232 8.975 0.833333C8.97555 0.942768 8.95453 1.05124 8.91316 1.15255C8.87179 1.25387 8.81086 1.34604 8.73387 1.42381C8.65687 1.50158 8.56531 1.56342 8.46442 1.60581C8.36352 1.64819 8.25527 1.67029 8.14583 1.67083C8.0364 1.67138 7.92793 1.65037 7.82661 1.60899C7.7253 1.56762 7.63313 1.5067 7.55536 1.4297C7.47759 1.35271 7.41575 1.26115 7.37336 1.16025C7.33098 1.05936 7.30888 0.951102 7.30833 0.841667C7.30833 0.373333 7.68167 0 8.14167 0ZM4.89167 0.741667C5.11268 0.741667 5.32464 0.829464 5.48092 0.985744C5.6372 1.14202 5.725 1.35399 5.725 1.575C5.72555 1.68443 5.70453 1.79291 5.66316 1.89422C5.62179 1.99553 5.56086 2.08771 5.48387 2.16548C5.40687 2.24325 5.31531 2.30509 5.21442 2.34747C5.11352 2.38986 5.00527 2.41195 4.89583 2.4125C4.7864 2.41305 4.67793 2.39203 4.57661 2.35066C4.4753 2.30929 4.38313 2.24836 4.30536 2.17137C4.14829 2.01587 4.05944 1.80435 4.05833 1.58333C4.05833 1.115 4.43167 0.741667 4.89167 0.741667ZM2.275 2.825C2.49601 2.825 2.70797 2.9128 2.86426 3.06908C3.02054 3.22536 3.10833 3.43732 3.10833 3.65833C3.10888 3.76777 3.08787 3.87624 3.04649 3.97755C3.00512 4.07887 2.9442 4.17104 2.8672 4.24881C2.7117 4.40587 2.50018 4.49473 2.27917 4.49583C2.16973 4.49638 2.06126 4.47537 1.95995 4.43399C1.85863 4.39262 1.76646 4.3317 1.68869 4.2547C1.53163 4.0992 1.44277 3.88768 1.44167 3.66667C1.44167 3.19833 1.815 2.825 2.275 2.825ZM0.833333 5.83333C1.03744 5.83336 1.23445 5.9083 1.38698 6.04393C1.53951 6.17956 1.63695 6.36646 1.66083 6.56917L1.66667 6.675C1.66643 6.8874 1.5851 7.09169 1.43929 7.24614C1.29349 7.40059 1.09421 7.49353 0.882171 7.50598C0.670136 7.51842 0.46135 7.44944 0.298473 7.31311C0.135595 7.17679 0.0309197 6.98341 0.00583331 6.7725L0 6.66667C0 6.44565 0.0877973 6.23369 0.244078 6.07741C0.400358 5.92113 0.61232 5.83333 0.833333 5.83333ZM0.833333 9.16667C1.03744 9.16669 1.23445 9.24163 1.38698 9.37726C1.53951 9.51289 1.63695 9.69979 1.66083 9.9025L1.66667 10.0083C1.66643 10.2207 1.5851 10.425 1.43929 10.5795C1.29349 10.7339 1.09421 10.8269 0.882171 10.8393C0.670136 10.8518 0.46135 10.7828 0.298473 10.6464C0.135595 10.5101 0.0309197 10.3167 0.00583331 10.1058L0 10C0 9.77899 0.0877973 9.56702 0.244078 9.41074C0.400358 9.25446 0.61232 9.16667 0.833333 9.16667ZM2.275 12.175C2.47911 12.175 2.67611 12.25 2.82864 12.3856C2.98117 12.5212 3.07862 12.7081 3.1025 12.9108L3.10833 13.0167C3.1081 13.2291 3.02677 13.4334 2.88096 13.5878C2.73515 13.7423 2.53587 13.8352 2.32384 13.8476C2.1118 13.8601 1.90302 13.7911 1.74014 13.6548C1.57726 13.5185 1.47259 13.3251 1.4475 13.1142L1.44167 13.0083C1.44167 12.7873 1.52946 12.5754 1.68574 12.4191C1.84202 12.2628 2.05399 12.175 2.275 12.175ZM4.89167 14.2583C5.09578 14.2584 5.29278 14.3333 5.44531 14.4689C5.59784 14.6046 5.69529 14.7915 5.71917 14.9942L5.725 15.1C5.72476 15.3124 5.64343 15.5167 5.49763 15.6711C5.35182 15.8256 5.15254 15.9185 4.9405 15.931C4.72847 15.9434 4.51968 15.8744 4.35681 15.7381C4.19393 15.6018 4.08925 15.4084 4.06417 15.1975L4.05833 15.0917C4.05833 14.8707 4.14613 14.6587 4.30241 14.5024C4.45869 14.3461 4.67065 14.2583 4.89167 14.2583ZM8.14167 15C8.34578 15 8.54278 15.075 8.69531 15.2106C8.84784 15.3462 8.94528 15.5331 8.96917 15.7358L8.975 15.8417C8.97476 16.0541 8.89343 16.2584 8.74763 16.4128C8.60182 16.5673 8.40254 16.6602 8.1905 16.6726C7.97847 16.6851 7.76968 16.6161 7.60681 16.4798C7.44393 16.3435 7.33925 16.1501 7.31417 15.9392L7.30833 15.8333C7.30833 15.6123 7.39613 15.4004 7.55241 15.2441C7.70869 15.0878 7.92065 15 8.14167 15Z" fill="#FE2A01"/>
</svg>
