<svg width="40" height="40" viewBox="0 0 40 40" fill="none" xmlns="http://www.w3.org/2000/svg">
<path fill-rule="evenodd" clip-rule="evenodd" d="M19.4492 0.39477C19.6277 -0.13161 20.372 -0.13157 20.5506 0.39477L21.9365 4.48286C22.0869 4.92658 22.6731 5.01962 22.9533 4.64418L25.5344 1.18433C25.8668 0.738669 26.5753 0.968668 26.5824 1.52458L26.6364 5.84101C26.6424 6.30941 27.1718 6.57907 27.5543 6.3085L31.0778 3.81543C31.5317 3.49429 32.1341 3.93203 31.969 4.46298L30.687 8.58458C30.5478 9.03195 30.9678 9.45184 31.4152 9.3128L35.5368 8.03076C36.0677 7.86561 36.5054 8.46807 36.1843 8.92199L33.6918 12.446C33.4212 12.8285 33.6908 13.3575 34.1593 13.3634L38.4751 13.4179C39.0311 13.4249 39.2611 14.1329 38.8154 14.4654L35.3561 17.0465C34.9806 17.3266 35.0731 17.9134 35.5169 18.0638L39.6049 19.4492C40.1315 19.6277 40.1315 20.3721 39.6049 20.5506L35.5169 21.9366C35.0732 22.0871 34.9806 22.6733 35.3561 22.9534L38.8154 25.5345C39.2611 25.867 39.0311 26.5755 38.4751 26.5825L34.1593 26.6365C33.6908 26.6424 33.4212 27.1719 33.6918 27.5544L36.1843 31.0779C36.5054 31.5318 36.0677 32.1343 35.5368 31.9691L31.4152 30.6871C30.9679 30.5481 30.548 30.968 30.687 31.4153L31.969 35.5369C32.1341 36.0678 31.5317 36.5056 31.0778 36.1845L27.5543 33.6919C27.1718 33.4213 26.6423 33.6909 26.6364 34.1594L26.5824 38.4753C26.5754 39.0313 25.8669 39.2612 25.5344 38.8156L22.9533 35.3563C22.6732 34.9807 22.087 35.0734 21.9365 35.517L20.5506 39.6051C20.372 40.1317 19.6276 40.1317 19.4492 39.6051L18.0637 35.517C17.9133 35.0733 17.3266 34.9807 17.0464 35.3563L14.4653 38.8156C14.1328 39.2612 13.4249 39.0313 13.4179 38.4753L13.3633 34.1594C13.3574 33.6909 12.8285 33.4213 12.446 33.6919L8.92195 36.1845C8.46802 36.5056 7.86557 36.0678 8.03072 35.5369L9.31275 31.4153C9.4518 30.9679 9.03191 30.5479 8.58454 30.6871L4.46295 31.9691C3.93201 32.1343 3.49427 31.5318 3.8154 31.0779L6.30847 27.5544C6.57904 27.172 6.30938 26.6425 5.84098 26.6365L1.52456 26.5825C0.968662 26.5754 0.738659 25.867 1.18431 25.5345L4.64415 22.9534C5.0196 22.6732 4.92656 22.087 4.48283 21.9366L0.394759 20.5506C-0.131569 20.3721 -0.131604 19.6278 0.394759 19.4492L4.48283 18.0638C4.92659 17.9134 5.0197 17.3267 4.64415 17.0465L1.18431 14.4654C0.73876 14.1329 0.968697 13.425 1.52456 13.4179L5.84098 13.3634C6.3093 13.3573 6.57881 12.8285 6.30847 12.446L3.8154 8.92199C3.49434 8.46807 3.93203 7.86561 4.46295 8.03076L8.58454 9.3128C9.03196 9.45196 9.45192 9.032 9.31275 8.58458L8.03072 4.46298C7.86557 3.93206 8.46803 3.49436 8.92195 3.81543L12.446 6.3085C12.8284 6.57885 13.3573 6.30933 13.3633 5.84101L13.4179 1.52458C13.425 0.968702 14.1328 0.738767 14.4653 1.18433L17.0464 4.64418C17.3266 5.01972 17.9133 4.92662 18.0637 4.48286L19.4492 0.39477ZM20.4284 10.2353C14.8068 10.2353 10.2494 14.7926 10.2494 20.4143C10.2496 26.0359 14.8068 30.5933 20.4284 30.5934C26.0501 30.5934 30.6073 26.0359 30.6074 20.4143C30.6074 14.7926 26.0501 10.2353 20.4284 10.2353Z" fill="currentColor"/>
</svg>
