<svg width="32" height="32" viewBox="0 0 32 32" fill="none" xmlns="http://www.w3.org/2000/svg">
<path d="M16.0693 1.66675H15.9306C14.732 1.66675 13.7333 1.66675 12.9413 1.77341C12.104 1.88541 11.348 2.13341 10.7413 2.74008C10.1333 3.34808 9.88529 4.10408 9.77329 4.94008C9.66663 5.73341 9.66663 6.73341 9.66663 7.93075V8.03475C10.2746 8.01608 10.9413 8.00541 11.6666 8.00275V8.00008C11.6666 6.71475 11.6693 5.85075 11.756 5.20675C11.8386 4.59208 11.9813 4.32808 12.156 4.15475C12.3306 3.98141 12.592 3.83875 13.2066 3.75475C13.8506 3.66941 14.7146 3.66675 16 3.66675C17.2853 3.66675 18.1493 3.66941 18.7933 3.75608C19.408 3.83875 19.672 3.98142 19.8453 4.15608C20.0186 4.33075 20.1613 4.59208 20.2453 5.20675C20.3306 5.85075 20.3333 6.71475 20.3333 8.00008V8.00275C21.0001 8.00432 21.6668 8.01499 22.3333 8.03475V7.93075C22.3333 6.73341 22.3333 5.73342 22.2266 4.94141C22.1146 4.10408 21.8666 3.34808 21.2586 2.74141C20.652 2.13341 19.896 1.88541 19.0586 1.77341C18.2666 1.66675 17.2666 1.66675 16.0693 1.66675Z" fill="#80ABFE"/>
<path opacity="0.5" fill-rule="evenodd" clip-rule="evenodd" d="M2.66663 18.6667C2.66663 13.6387 2.66663 11.124 4.22929 9.56267C5.79196 8.00133 8.30529 8 13.3333 8H18.6666C23.6946 8 26.2093 8 27.7706 9.56267C29.332 11.1253 29.3333 13.6387 29.3333 18.6667C29.3333 23.6947 29.3333 26.2093 27.7706 27.7707C26.208 29.332 23.6946 29.3333 18.6666 29.3333H13.3333C8.30529 29.3333 5.79063 29.3333 4.22929 27.7707C2.66796 26.208 2.66663 23.6947 2.66663 18.6667ZM17 16.6667C17 16.4015 16.8946 16.1471 16.7071 15.9596C16.5195 15.772 16.2652 15.6667 16 15.6667C15.7347 15.6667 15.4804 15.772 15.2929 15.9596C15.1053 16.1471 15 16.4015 15 16.6667V17.6667H14C13.7347 17.6667 13.4804 17.772 13.2929 17.9596C13.1053 18.1471 13 18.4015 13 18.6667C13 18.9319 13.1053 19.1862 13.2929 19.3738C13.4804 19.5613 13.7347 19.6667 14 19.6667H15V20.6667C15 20.9319 15.1053 21.1862 15.2929 21.3738C15.4804 21.5613 15.7347 21.6667 16 21.6667C16.2652 21.6667 16.5195 21.5613 16.7071 21.3738C16.8946 21.1862 17 20.9319 17 20.6667V19.6667H18C18.2652 19.6667 18.5195 19.5613 18.7071 19.3738C18.8946 19.1862 19 18.9319 19 18.6667C19 18.4015 18.8946 18.1471 18.7071 17.9596C18.5195 17.772 18.2652 17.6667 18 17.6667H17V16.6667Z" fill="#80ABFE"/>
<path fill-rule="evenodd" clip-rule="evenodd" d="M16 23.9999C17.4144 23.9999 18.771 23.438 19.7712 22.4378C20.7714 21.4376 21.3333 20.0811 21.3333 18.6666C21.3333 17.2521 20.7714 15.8955 19.7712 14.8953C18.771 13.8952 17.4144 13.3333 16 13.3333C14.5855 13.3333 13.2289 13.8952 12.2287 14.8953C11.2285 15.8955 10.6666 17.2521 10.6666 18.6666C10.6666 20.0811 11.2285 21.4376 12.2287 22.4378C13.2289 23.438 14.5855 23.9999 16 23.9999ZM17 16.6666C17 16.4014 16.8946 16.147 16.7071 15.9595C16.5195 15.7719 16.2652 15.6666 16 15.6666C15.7347 15.6666 15.4804 15.7719 15.2929 15.9595C15.1053 16.147 15 16.4014 15 16.6666V17.6666H14C13.7347 17.6666 13.4804 17.7719 13.2929 17.9595C13.1053 18.147 13 18.4014 13 18.6666C13 18.9318 13.1053 19.1862 13.2929 19.3737C13.4804 19.5612 13.7347 19.6666 14 19.6666H15V20.6666C15 20.9318 15.1053 21.1862 15.2929 21.3737C15.4804 21.5612 15.7347 21.6666 16 21.6666C16.2652 21.6666 16.5195 21.5612 16.7071 21.3737C16.8946 21.1862 17 20.9318 17 20.6666V19.6666H18C18.2652 19.6666 18.5195 19.5612 18.7071 19.3737C18.8946 19.1862 19 18.9318 19 18.6666C19 18.4014 18.8946 18.147 18.7071 17.9595C18.5195 17.7719 18.2652 17.6666 18 17.6666H17V16.6666Z" fill="#80ABFE"/>
</svg>
