<svg width="32" height="32" viewBox="0 0 32 32" fill="none" xmlns="http://www.w3.org/2000/svg">
<path opacity="0.5" d="M4.22935 9.56276C5.35335 8.43742 6.97335 8.12276 9.66935 8.03476L11.6694 8.00276C12.192 8.00009 12.7467 7.9992 13.3334 8.00009H18.6667C19.2551 8.00009 19.8098 8.00098 20.3307 8.00276L22.3307 8.03476C25.0267 8.12276 26.6467 8.43742 27.7707 9.56276C29.3334 11.1241 29.3334 13.6388 29.3334 18.6668C29.3334 23.6948 29.3334 26.2094 27.7707 27.7708C26.208 29.3321 23.6947 29.3334 18.6667 29.3334H13.3334C8.30535 29.3334 5.79069 29.3334 4.22935 27.7708C2.66802 26.2081 2.66669 23.6948 2.66669 18.6668C2.66669 13.6388 2.66669 11.1241 4.22935 9.56276Z" fill="#80ABFE"/>
<path d="M17 13.3334C17 13.0682 16.8946 12.8138 16.7071 12.6263C16.5195 12.4388 16.2652 12.3334 16 12.3334C15.7348 12.3334 15.4804 12.4388 15.2929 12.6263C15.1053 12.8138 15 13.0682 15 13.3334V13.3467C13.548 13.7121 12.3333 14.8574 12.3333 16.4441C12.3333 18.3867 14.1533 19.6667 16 19.6667C17.0986 19.6667 17.6666 20.3774 17.6666 20.8894C17.6666 21.4014 17.0986 22.1107 16 22.1107C14.9013 22.1107 14.3333 21.4014 14.3333 20.8894C14.3333 20.6242 14.228 20.3698 14.0404 20.1823C13.8529 19.9948 13.5985 19.8894 13.3333 19.8894C13.0681 19.8894 12.8137 19.9948 12.6262 20.1823C12.4387 20.3698 12.3333 20.6242 12.3333 20.8894C12.3333 22.4761 13.548 23.6201 15 23.9867V24.0001C15 24.2653 15.1053 24.5197 15.2929 24.7072C15.4804 24.8947 15.7348 25.0001 16 25.0001C16.2652 25.0001 16.5195 24.8947 16.7071 24.7072C16.8946 24.5197 17 24.2653 17 24.0001V23.9867C18.452 23.6214 19.6666 22.4761 19.6666 20.8894C19.6666 18.9467 17.8466 17.6667 16 17.6667C14.9013 17.6667 14.3333 16.9561 14.3333 16.4441C14.3333 15.9321 14.9013 15.2227 16 15.2227C17.0986 15.2227 17.6666 15.9321 17.6666 16.4441C17.6666 16.7093 17.772 16.9637 17.9595 17.1512C18.1471 17.3387 18.4014 17.4441 18.6666 17.4441C18.9319 17.4441 19.1862 17.3387 19.3738 17.1512C19.5613 16.9637 19.6666 16.7093 19.6666 16.4441C19.6666 14.8574 18.452 13.7121 17 13.3467V13.3334ZM16.0693 1.66675H15.9306C14.7333 1.66675 13.7333 1.66675 12.9413 1.77341C12.104 1.88541 11.348 2.13341 10.7413 2.74008C10.1333 3.34808 9.88531 4.10408 9.77331 4.94008C9.69731 5.50941 9.67598 6.86808 9.66931 8.03341L11.6693 8.00275C11.676 6.87341 11.696 5.65875 11.756 5.20675C11.8386 4.59208 11.9813 4.32808 12.156 4.15475C12.3306 3.98141 12.592 3.83875 13.208 3.75475C13.852 3.66941 14.7146 3.66675 16 3.66675C17.2853 3.66675 18.1493 3.66941 18.7933 3.75608C19.408 3.83875 19.672 3.98142 19.8453 4.15608C20.0186 4.33075 20.1626 4.59208 20.2453 5.20675C20.3053 5.66008 20.3253 6.87341 20.3306 8.00275L22.3306 8.03475C22.3253 6.86808 22.304 5.50941 22.2266 4.94141C22.1146 4.10408 21.8666 3.34808 21.26 2.74141C20.652 2.13341 19.896 1.88541 19.06 1.77341C18.2666 1.66675 17.268 1.66675 16.0693 1.66675Z" fill="#80ABFE"/>
</svg>
