<svg width="30" height="29" viewBox="0 0 30 29" fill="none" xmlns="http://www.w3.org/2000/svg">
<path fill-rule="evenodd" clip-rule="evenodd" d="M4.386 20.422C6.55267 20.5407 10.0247 20.6667 15 20.6667C19.9753 20.6667 23.4467 20.5407 25.614 20.422C27.7393 20.306 29.514 18.762 29.73 16.5713C29.8747 15.1047 30 13.0487 30 10.3333C30 7.618 29.8747 5.562 29.73 4.09533C29.514 1.904 27.7393 0.360667 25.614 0.244667C23.4473 0.126 19.9753 0 15 0C10.0247 0 6.55333 0.126 4.386 0.244667C2.26067 0.360667 0.486 1.90467 0.27 4.09533C0.125333 5.562 0 7.618 0 10.3333C0 13.0487 0.125333 15.1047 0.27 16.5713C0.486 18.7627 2.26067 20.306 4.386 20.422ZM15 3.97C15.2652 3.97 15.5196 4.07536 15.7071 4.26289C15.8946 4.45043 16 4.70478 16 4.97V5.58133C16.4589 5.66372 16.9065 5.7993 17.334 5.98533C17.6633 6.12933 17.9867 6.29667 18.2733 6.51467C18.7027 6.84267 18.7893 7.488 18.4607 7.91733C18.3003 8.12682 18.0637 8.26447 17.8024 8.30031C17.541 8.33614 17.2761 8.26726 17.0653 8.10867C16.4807 7.68333 15.7187 7.494 15 7.494C14.5207 7.494 14.054 7.64333 13.7293 7.86467C13.3967 8.09067 13.3333 8.29533 13.3333 8.398C13.3333 8.63867 13.4373 8.768 13.6447 8.88067C14.0553 9.104 14.5387 9.19667 15.0027 9.28533L15.2713 9.338C15.8847 9.46267 16.678 9.624 17.3113 9.96867C18.1527 10.4267 18.6667 11.242 18.6667 12.208C18.6667 13.1933 18.0633 13.9413 17.396 14.3947C16.9712 14.6786 16.4981 14.8826 16 14.9967V15.6367C16 15.9019 15.8946 16.1562 15.7071 16.3438C15.5196 16.5313 15.2652 16.6367 15 16.6367C14.7348 16.6367 14.4804 16.5313 14.2929 16.3438C14.1054 16.1562 14 15.9019 14 15.6367V15.0247C13.2067 14.884 12.372 14.5847 11.7253 14.0907C11.514 13.9303 11.3751 13.6926 11.3391 13.4298C11.3031 13.167 11.373 12.9006 11.5333 12.6893C11.6937 12.478 11.9314 12.3391 12.1942 12.3031C12.457 12.2671 12.7234 12.337 12.9347 12.4973C13.5133 12.918 14.2973 13.1127 15 13.1127C15.4773 13.1127 15.946 12.9627 16.2707 12.7413C16.6033 12.5153 16.6667 12.3107 16.6667 12.208C16.6667 11.9673 16.5627 11.838 16.3553 11.7253C15.9447 11.502 15.462 11.4093 14.998 11.3207L14.7287 11.268C14.116 11.1433 13.322 10.982 12.6887 10.6373C11.8473 10.1793 11.3333 9.364 11.3333 8.398C11.3333 7.41267 11.9367 6.66467 12.604 6.21133C13.0288 5.92742 13.5019 5.72341 14 5.60933V4.97C14 4.70478 14.1054 4.45043 14.2929 4.26289C14.4804 4.07536 14.7348 3.97 15 3.97ZM23.6667 8.97C23.313 8.97 22.9739 9.11048 22.7239 9.36053C22.4738 9.61057 22.3333 9.94971 22.3333 10.3033C22.3333 10.657 22.4738 10.9961 22.7239 11.2461C22.9739 11.4962 23.313 11.6367 23.6667 11.6367H24.3333C24.687 11.6367 25.0261 11.4962 25.2761 11.2461C25.5262 10.9961 25.6667 10.657 25.6667 10.3033C25.6667 9.94971 25.5262 9.61057 25.2761 9.36053C25.0261 9.11048 24.687 8.97 24.3333 8.97H23.6667ZM4.33333 10.3033C4.33333 9.94971 4.47381 9.61057 4.72386 9.36053C4.97391 9.11048 5.31305 8.97 5.66667 8.97H6.33333C6.68696 8.97 7.02609 9.11048 7.27614 9.36053C7.52619 9.61057 7.66667 9.94971 7.66667 10.3033C7.66667 10.657 7.52619 10.9961 7.27614 11.2461C7.02609 11.4962 6.68696 11.6367 6.33333 11.6367H5.66667C5.31305 11.6367 4.97391 11.4962 4.72386 11.2461C4.47381 10.9961 4.33333 10.657 4.33333 10.3033ZM6.75667 26.7833C6.81112 26.6638 6.88858 26.5562 6.98462 26.4667C7.08066 26.3771 7.1934 26.3073 7.31641 26.2613C7.43942 26.2153 7.57028 26.194 7.70153 26.1986C7.83277 26.2032 7.96183 26.2335 8.08133 26.288C8.34933 26.41 8.65267 26.4867 8.98133 26.5033C10.3913 26.5747 12.3747 26.6373 15 26.6373C17.6253 26.6373 19.6093 26.5747 21.0193 26.5033C21.348 26.4867 21.6507 26.41 21.9193 26.288C22.1599 26.1828 22.4323 26.1765 22.6775 26.2704C22.9228 26.3643 23.1212 26.5509 23.23 26.7899C23.3389 27.0289 23.3493 27.3011 23.2591 27.5477C23.1689 27.7943 22.9853 27.9956 22.748 28.108C22.2352 28.3405 21.6831 28.474 21.1207 28.5013C19.674 28.5747 17.6573 28.6373 15.0007 28.6373C12.3433 28.6373 10.326 28.574 8.88067 28.5007C8.3181 28.4736 7.76572 28.3404 7.25267 28.108C7.1331 28.0536 7.02543 27.9762 6.93579 27.8802C6.84615 27.7842 6.77631 27.6714 6.73025 27.5484C6.68419 27.4254 6.66281 27.2945 6.66735 27.1632C6.67188 27.032 6.70223 26.9029 6.75667 26.7833ZM3.828 22.3453C3.97234 22.123 4.19906 21.967 4.45834 21.9118C4.71761 21.8565 4.98821 21.9065 5.21067 22.0507C5.57443 22.2831 5.99281 22.4159 6.424 22.436C8.26333 22.5367 11.0767 22.636 15 22.636C18.9233 22.636 21.7367 22.5367 23.576 22.436C24.0072 22.4159 24.4256 22.2831 24.7893 22.0507C25.0118 21.9102 25.2807 21.863 25.5378 21.9194C25.7948 21.9759 26.0192 22.1313 26.1624 22.3521C26.3055 22.5729 26.3559 22.8413 26.3025 23.0989C26.2492 23.3566 26.0964 23.5829 25.8773 23.7287C25.2208 24.1511 24.465 24.394 23.6853 24.4333C21.8073 24.536 18.9573 24.6367 15 24.6367C11.0427 24.6367 8.19333 24.536 6.31467 24.4333C5.53498 24.394 4.7792 24.1511 4.12267 23.7287C4.01248 23.6572 3.91744 23.5647 3.843 23.4565C3.76855 23.3483 3.71615 23.2265 3.68879 23.098C3.66143 22.9696 3.65964 22.837 3.68352 22.7078C3.70741 22.5787 3.7565 22.4555 3.828 22.3453Z" fill="white"/>
</svg>
