<svg width="18" height="18" viewBox="0 0 18 18" fill="none" xmlns="http://www.w3.org/2000/svg">
<path opacity="0.5" d="M10.5 16.5H7.5C4.67175 16.5 3.25725 16.5 2.379 15.591C1.50075 14.682 1.5 13.2195 1.5 10.2938V9.153C1.5 7.43625 1.5 6.57825 1.89 5.86725C2.2785 5.1555 2.99025 4.7145 4.413 3.831L5.913 2.90025C7.41675 1.9665 8.169 1.5 9 1.5C9.831 1.5 10.5825 1.9665 12.087 2.90025L13.587 3.831C15.0097 4.7145 15.7215 5.1555 16.1108 5.86725C16.5 6.579 16.5 7.43625 16.5 9.15225V10.2938C16.5 13.2188 16.5 14.682 15.621 15.591C14.742 16.5 13.3282 16.5 10.5 16.5Z" fill="#80ABFE"/>
<path fill-rule="evenodd" clip-rule="evenodd" d="M1.5 9.1875C1.5 9.03832 1.55926 8.89524 1.66475 8.78975C1.77024 8.68426 1.91332 8.625 2.0625 8.625C6.105 8.625 9.381 11.8987 9.381 15.9375C9.381 16.0867 9.32174 16.2298 9.21625 16.3352C9.11076 16.4407 8.96768 16.5 8.8185 16.5C8.66932 16.5 8.52624 16.4407 8.42075 16.3352C8.31526 16.2298 8.256 16.0867 8.256 15.9375C8.256 12.5205 5.48325 9.75 2.06325 9.75C1.98932 9.7501 1.91609 9.73562 1.84776 9.7074C1.77943 9.67917 1.71733 9.63776 1.66502 9.58551C1.61271 9.53327 1.5712 9.47123 1.54289 9.40293C1.51457 9.33464 1.5 9.26143 1.5 9.1875ZM2.0625 10.875C1.91332 10.875 1.77024 10.9343 1.66475 11.0398C1.55926 11.1452 1.5 11.2883 1.5 11.4375C1.5 11.5867 1.55926 11.7298 1.66475 11.8352C1.77024 11.9407 1.91332 12 2.0625 12C2.5799 11.9995 3.09232 12.101 3.57047 12.2986C4.04862 12.4963 4.48313 12.7863 4.84916 13.1519C5.21519 13.5176 5.50556 13.9519 5.70367 14.4298C5.90178 14.9078 6.00375 15.4201 6.00375 15.9375C6.00375 16.0867 6.06301 16.2298 6.1685 16.3352C6.27399 16.4407 6.41707 16.5 6.56625 16.5C6.71543 16.5 6.85851 16.4407 6.964 16.3352C7.06949 16.2298 7.12875 16.0867 7.12875 15.9375C7.12815 14.5945 6.59418 13.3067 5.64426 12.3574C4.69434 11.408 3.4055 10.8748 2.0625 10.875ZM1.5 13.6875C1.5 13.5383 1.55926 13.3952 1.66475 13.2898C1.77024 13.1843 1.91332 13.125 2.0625 13.125C2.4321 13.1246 2.79814 13.1971 3.13972 13.3382C3.48129 13.4794 3.79169 13.6865 4.05318 13.9477C4.31466 14.2089 4.5221 14.5191 4.66362 14.8605C4.80515 15.2019 4.878 15.5679 4.878 15.9375C4.878 16.0869 4.81866 16.2301 4.71303 16.3358C4.6074 16.4414 4.46413 16.5007 4.31475 16.5007C4.16537 16.5007 4.0221 16.4414 3.91647 16.3358C3.81084 16.2301 3.7515 16.0869 3.7515 15.9375C3.7515 15.7158 3.70783 15.4963 3.62297 15.2915C3.53812 15.0868 3.41376 14.9007 3.25698 14.744C3.1002 14.5873 2.91408 14.463 2.70926 14.3782C2.50444 14.2935 2.28492 14.2499 2.06325 14.25C1.98932 14.2501 1.91609 14.2356 1.84776 14.2074C1.77943 14.1792 1.71733 14.1378 1.66502 14.0855C1.61271 14.0333 1.5712 13.9712 1.54289 13.9029C1.51457 13.8346 1.5 13.7614 1.5 13.6875Z" fill="#80ABFE"/>
</svg>
