<svg width="30" height="20" viewBox="0 0 30 20" fill="none" xmlns="http://www.w3.org/2000/svg">
<path opacity="0.2" d="M23.9333 5H2.06667C1.78377 5 1.51246 5.11238 1.31242 5.31242C1.11238 5.51246 1 5.78377 1 6.06667V17.2667C1 17.5496 1.11238 17.8209 1.31242 18.0209C1.51246 18.221 1.78377 18.3333 2.06667 18.3333H23.9333C24.2162 18.3333 24.4875 18.221 24.6876 18.0209C24.8876 17.8209 25 17.5496 25 17.2667V6.06667C25 5.78377 24.8876 5.51246 24.6876 5.31242C24.4875 5.11238 24.2162 5 23.9333 5Z" fill="#0157FE"/>
<path d="M5 5V2.06667C5 1.48 5.48 1 6.06667 1H27.9333C28.52 1 29 1.48 29 2.06667V13.2667C29 13.8533 28.52 14.3333 27.9333 14.3333H25M2.06667 5H23.9333C24.2162 5 24.4875 5.11238 24.6876 5.31242C24.8876 5.51246 25 5.78377 25 6.06667V17.2667C25 17.5496 24.8876 17.8209 24.6876 18.0209C24.4875 18.221 24.2162 18.3333 23.9333 18.3333H2.06667C1.78377 18.3333 1.51246 18.221 1.31242 18.0209C1.11238 17.8209 1 17.5496 1 17.2667V6.06667C1 5.78377 1.11238 5.51246 1.31242 5.31242C1.51246 5.11238 1.78377 5 2.06667 5ZM14.3333 11.6667C14.3333 12.0203 14.1929 12.3594 13.9428 12.6095C13.6928 12.8595 13.3536 13 13 13C12.6464 13 12.3072 12.8595 12.0572 12.6095C11.8071 12.3594 11.6667 12.0203 11.6667 11.6667C11.6667 11.313 11.8071 10.9739 12.0572 10.7239C12.3072 10.4738 12.6464 10.3333 13 10.3333C13.3536 10.3333 13.6928 10.4738 13.9428 10.7239C14.1929 10.9739 14.3333 11.313 14.3333 11.6667Z" stroke="#0157FE" stroke-width="2" stroke-miterlimit="10" stroke-linejoin="round"/>
</svg>
