<svg width="24" height="24" viewBox="0 0 24 24" fill="none" xmlns="http://www.w3.org/2000/svg">
<path opacity="0.25" d="M15.6 2H8.4C7.76348 2 7.15303 2.25286 6.70294 2.70294C6.25286 3.15303 6 3.76348 6 4.4V19.6C6 20.2365 6.25286 20.847 6.70294 21.2971C6.9258 21.5199 7.19038 21.6967 7.48156 21.8173C7.77274 21.9379 8.08483 22 8.4 22H15.6C16.2365 22 16.847 21.7471 17.2971 21.2971C17.7471 20.847 18 20.2365 18 19.6V4.4C18 3.76348 17.7471 3.15303 17.2971 2.70294C16.847 2.25286 16.2365 2 15.6 2Z" fill="#0157FE"/>
<path d="M17.5 4.40039C17.5 3.89648 17.2997 3.41296 16.9434 3.05664C16.587 2.70032 16.1035 2.5 15.5996 2.5H8.40039C7.89648 2.5 7.41296 2.70032 7.05664 3.05664C6.70032 3.41296 6.5 3.89648 6.5 4.40039V19.5996C6.5 20.1035 6.70032 20.587 7.05664 20.9434C7.23307 21.1198 7.44234 21.26 7.67285 21.3555C7.90337 21.451 8.15088 21.5 8.40039 21.5H15.5996C16.1035 21.5 16.587 21.2997 16.9434 20.9434C17.2997 20.587 17.5 20.1035 17.5 19.5996V4.40039ZM13 4.5C13.2761 4.5 13.5 4.72386 13.5 5C13.5 5.27614 13.2761 5.5 13 5.5H11C10.7239 5.5 10.5 5.27614 10.5 5C10.5 4.72386 10.7239 4.5 11 4.5H13ZM18.5 19.5996C18.5 20.3687 18.1942 21.1065 17.6504 21.6504C17.1065 22.1942 16.3687 22.5 15.5996 22.5H8.40039C8.01956 22.5 7.64188 22.425 7.29004 22.2793C6.93825 22.1336 6.61886 21.9196 6.34961 21.6504C5.80575 21.1065 5.5 20.3687 5.5 19.5996V4.40039C5.5 3.63126 5.80575 2.89346 6.34961 2.34961C6.89346 1.80575 7.63126 1.5 8.40039 1.5H15.5996C16.3687 1.5 17.1065 1.80575 17.6504 2.34961C18.1942 2.89346 18.5 3.63126 18.5 4.40039V19.5996Z" fill="#0157FE"/>
</svg>
