<svg width="32" height="32" viewBox="0 0 32 32" fill="none" xmlns="http://www.w3.org/2000/svg">
<path opacity="0.2" d="M2.66669 15.9998C2.66669 8.63584 8.63602 2.6665 16 2.6665V15.9998H29.3334C29.3334 23.3638 23.364 29.3332 16 29.3332C8.63602 29.3332 2.66669 23.3638 2.66669 15.9998Z" fill="#FE2A01"/>
<path d="M16 15.9998H15C15 16.5518 15.448 16.9998 16 16.9998V15.9998ZM22.628 4.75717C22.7263 4.66562 22.8051 4.55522 22.8597 4.43255C22.9144 4.30989 22.9438 4.17747 22.9461 4.0432C22.9485 3.90893 22.9238 3.77556 22.8735 3.65104C22.8232 3.52652 22.7484 3.41341 22.6534 3.31845C22.5584 3.22349 22.4453 3.14863 22.3208 3.09834C22.1963 3.04805 22.0629 3.02335 21.9287 3.02572C21.7944 3.02808 21.662 3.05747 21.5393 3.11213C21.4166 3.16679 21.3062 3.24559 21.2147 3.34384L21.9214 4.0505L22.628 4.75717ZM15.2934 9.26384C15.1167 9.4534 15.0205 9.70413 15.0251 9.9632C15.0297 10.2223 15.1346 10.4694 15.3179 10.6527C15.5011 10.8359 15.7483 10.9408 16.0073 10.9454C16.2664 10.95 16.5171 10.8538 16.7067 10.6772L16 9.9705L15.2934 9.26384ZM28.7147 10.9038C28.9025 10.7162 29.008 10.4617 29.0081 10.1963C29.0083 9.93088 28.9029 9.67628 28.7154 9.4885C28.5278 9.30073 28.2733 9.19517 28.0078 9.19504C27.7424 9.19492 27.4878 9.30024 27.3 9.48784L28.0067 10.1945L28.7147 10.9038ZM21.496 15.2932C21.3194 15.4827 21.2232 15.7335 21.2278 15.9925C21.2324 16.2516 21.3373 16.4988 21.5205 16.682C21.7037 16.8652 21.9509 16.9702 22.21 16.9747C22.4691 16.9793 22.7198 16.8831 22.9094 16.7065L22.2027 15.9998L21.496 15.2932ZM29.3334 15.9998H30.3334C30.3334 8.08384 23.916 1.6665 16 1.6665V3.6665C19.271 3.6665 22.4081 4.9659 24.721 7.27885C27.034 9.5918 28.3334 12.7288 28.3334 15.9998H29.3334ZM16 2.6665V1.6665C8.08402 1.6665 1.66669 8.08384 1.66669 15.9998H3.66669C3.66669 12.7288 4.96609 9.5918 7.27904 7.27885C9.59199 4.9659 12.729 3.6665 16 3.6665V2.6665ZM2.66669 15.9998H1.66669C1.66669 23.9158 8.08402 30.3332 16 30.3332V28.3332C12.729 28.3332 9.59199 27.0338 7.27904 24.7208C4.96609 22.4079 3.66669 19.2708 3.66669 15.9998H2.66669ZM16 29.3332V30.3332C23.916 30.3332 30.3334 23.9158 30.3334 15.9998H28.3334C28.3334 19.2708 27.034 22.4079 24.721 24.7208C22.4081 27.0338 19.271 28.3332 16 28.3332V29.3332ZM6.57202 25.4278L7.27869 26.1345L26.1347 7.27984L25.428 6.57317L24.7214 5.8665L5.86535 24.7198L6.57202 25.4278ZM16 15.9998V16.9998H29.3334V14.9998H16V15.9998ZM16 15.9998H17V2.6665H15V15.9998H16ZM21.9214 4.0505L21.2134 3.34384L15.2934 9.26384L16 9.9705L16.7067 10.6772L22.628 4.75717L21.9214 4.0505ZM28.0067 10.1945L27.3 9.48784L21.496 15.2932L22.2027 15.9998L22.9094 16.7065L28.7147 10.9025L28.0067 10.1945Z" fill="#FE2A01"/>
</svg>
