<svg width="24" height="24" viewBox="0 0 24 24" fill="none" xmlns="http://www.w3.org/2000/svg">
<path opacity="0.2" d="M3.464 20.536C4.93 22 7.286 22 12 22C16.714 22 19.071 22 20.535 20.535C22 19.072 22 16.714 22 12C22 7.286 22 4.929 20.535 3.464C19.072 2 16.714 2 12 2C7.286 2 4.929 2 3.464 3.464C2 4.93 2 7.286 2 12C2 16.714 2 19.072 3.464 20.536Z" fill="#0157FE"/>
<path d="M18.581 9.47411C18.6458 9.39812 18.6947 9.30996 18.725 9.2148C18.7553 9.11964 18.7662 9.01939 18.7572 8.91994C18.7482 8.82049 18.7194 8.72384 18.6726 8.63566C18.6257 8.54748 18.5617 8.46954 18.4844 8.40641C18.407 8.34329 18.3178 8.29625 18.222 8.26806C18.1262 8.23987 18.0257 8.23109 17.9265 8.24224C17.8273 8.25339 17.7313 8.28424 17.6441 8.33299C17.557 8.38174 17.4804 8.44739 17.419 8.52611L12.251 14.8561C12.1032 14.8031 11.9424 14.7979 11.7914 14.8413C11.6405 14.8846 11.507 14.9743 11.4098 15.0977C11.3126 15.2211 11.2567 15.3719 11.2499 15.5288C11.2431 15.6857 11.2858 15.8408 11.372 15.9721L11.658 16.4101C11.7225 16.5089 11.8094 16.591 11.9116 16.6499C12.0138 16.7087 12.1285 16.7427 12.2463 16.7489C12.3641 16.7551 12.4816 16.7335 12.5895 16.6858C12.6974 16.638 12.7924 16.5655 12.867 16.4741L18.581 9.47411ZM14.581 9.47411C14.6458 9.39812 14.6947 9.30996 14.725 9.2148C14.7553 9.11964 14.7662 9.01939 14.7572 8.91994C14.7482 8.82049 14.7194 8.72384 14.6726 8.63566C14.6257 8.54748 14.5617 8.46954 14.4844 8.40641C14.407 8.34329 14.3178 8.29625 14.222 8.26806C14.1262 8.23987 14.0257 8.23109 13.9265 8.24224C13.8273 8.25339 13.7313 8.28424 13.6441 8.33299C13.557 8.38174 13.4804 8.44739 13.419 8.52611L8.286 14.8141L6.581 12.7261C6.45378 12.5769 6.27317 12.4834 6.07786 12.4657C5.88256 12.4481 5.6881 12.5076 5.53615 12.6315C5.38419 12.7555 5.28684 12.9341 5.26495 13.1289C5.24305 13.3238 5.29835 13.5195 5.419 13.6741L7.705 16.4741C7.77534 16.5603 7.86396 16.6297 7.96445 16.6774C8.06494 16.7251 8.17478 16.7498 8.286 16.7498C8.39723 16.7498 8.50707 16.7251 8.60756 16.6774C8.70804 16.6297 8.79667 16.5603 8.867 16.4741L14.581 9.47411Z" fill="#0157FE"/>
</svg>
