<svg width="18" height="18" viewBox="0 0 18 18" fill="none" xmlns="http://www.w3.org/2000/svg">
<path opacity="0.5" d="M9.82999 16.5H8.17099C5.58574 16.5 4.29349 16.5 3.41224 15.741C2.53099 14.982 2.34799 13.7123 1.98274 11.1713L1.77349 9.7185C1.48849 7.74075 1.34599 6.7515 1.75174 5.90625C2.15749 5.061 3.01999 4.5465 4.74574 3.519L5.78449 2.90025C7.35049 1.9665 8.13499 1.5 9.00049 1.5C9.86599 1.5 10.6497 1.9665 12.2165 2.90025L13.2552 3.519C14.9802 4.5465 15.8435 5.061 16.2492 5.90625C16.655 6.7515 16.5117 7.74075 16.2267 9.7185L16.0182 11.1713C15.653 13.7123 15.47 14.982 14.5887 15.741C13.7075 16.5 12.4152 16.5 9.82999 16.5Z" fill="#80ABFE"/>
<path d="M6.1875 13.5C6.1875 13.3508 6.24676 13.2077 6.35225 13.1023C6.45774 12.9968 6.60082 12.9375 6.75 12.9375H11.25C11.3992 12.9375 11.5423 12.9968 11.6477 13.1023C11.7532 13.2077 11.8125 13.3508 11.8125 13.5C11.8125 13.6492 11.7532 13.7923 11.6477 13.8977C11.5423 14.0032 11.3992 14.0625 11.25 14.0625H6.75C6.60082 14.0625 6.45774 14.0032 6.35225 13.8977C6.24676 13.7923 6.1875 13.6492 6.1875 13.5Z" fill="#80ABFE"/>
</svg>
