<svg width="32" height="32" viewBox="0 0 32 32" fill="none" xmlns="http://www.w3.org/2000/svg">
<path opacity="0.2" d="M9.33366 28C8.62641 28 7.94814 27.719 7.44804 27.219C6.94794 26.7189 6.66699 26.0406 6.66699 25.3333V4H17.3337V12H25.3337V25.3333C25.3337 26.0406 25.0527 26.7189 24.5526 27.219C24.0525 27.719 23.3742 28 22.667 28H9.33366Z" fill="#0157FE"/>
<path d="M9.33366 28C8.62641 28 7.94814 27.719 7.44804 27.219C6.94794 26.7189 6.66699 26.0406 6.66699 25.3333V4H18.667L25.3337 10.6667V25.3333C25.3337 26.0406 25.0527 26.7189 24.5526 27.219C24.0525 27.719 23.3742 28 22.667 28H9.33366Z" stroke="#0157FE" stroke-width="2" stroke-linecap="round" stroke-linejoin="round"/>
<path d="M17.334 4V12H25.334" stroke="#0157FE" stroke-width="2" stroke-linejoin="round"/>
</svg>
