<svg width="18" height="18" viewBox="0 0 18 18" fill="none" xmlns="http://www.w3.org/2000/svg">
<path fill-rule="evenodd" clip-rule="evenodd" d="M2.41062 2.40964C2.12194 2.69801 1.89292 3.04045 1.73667 3.41739C1.58042 3.79432 1.5 4.19835 1.5 4.60639C1.5 5.01443 1.58042 5.41846 1.73667 5.7954C1.89292 6.17233 2.12194 6.51477 2.41062 6.80314L11.1984 15.5901C11.781 16.1728 12.5712 16.5001 13.3951 16.5001C13.8031 16.5001 14.2071 16.4197 14.584 16.2636C14.9609 16.1075 15.3034 15.8786 15.5919 15.5901C15.8803 15.3017 16.1092 14.9592 16.2653 14.5823C16.4214 14.2053 16.5018 13.8014 16.5018 13.3934C16.5018 12.9854 16.4214 12.5814 16.2653 12.2045C16.1092 11.8276 15.8803 11.4851 15.5919 11.1966L6.80337 2.40964C6.515 2.12096 6.17256 1.89195 5.79562 1.7357C5.41869 1.57945 5.01465 1.49902 4.60662 1.49902C4.19858 1.49902 3.79455 1.57945 3.41761 1.7357C3.04068 1.89195 2.69824 2.12096 2.40987 2.40964M7.00887 6.17314C6.95456 6.11584 6.88933 6.07001 6.81701 6.03833C6.7447 6.00666 6.66678 5.9898 6.58784 5.98874C6.5089 5.98769 6.43055 6.00245 6.35742 6.03218C6.28428 6.0619 6.21784 6.10597 6.16202 6.16179C6.1062 6.21761 6.06212 6.28405 6.0324 6.35719C6.00268 6.43033 5.98791 6.50867 5.98897 6.58761C5.99003 6.66655 6.00689 6.74447 6.03856 6.81679C6.07023 6.8891 6.11607 6.95434 6.17337 7.00864C6.28426 7.11953 6.43467 7.18183 6.59149 7.18183C6.74832 7.18183 6.89872 7.11953 7.00962 7.00864C7.12051 6.89775 7.18281 6.74734 7.18281 6.59052C7.18281 6.43369 7.12051 6.28328 7.00962 6.17239M9.09762 6.86839C9.04276 6.81353 8.97763 6.77001 8.90595 6.74032C8.83427 6.71063 8.75745 6.69535 8.67987 6.69535C8.60228 6.69535 8.52546 6.71063 8.45378 6.74032C8.38211 6.77001 8.31698 6.81353 8.26212 6.86839C8.20726 6.92325 8.16374 6.98838 8.13405 7.06006C8.10436 7.13173 8.08908 7.20856 8.08908 7.28614C8.08908 7.36372 8.10436 7.44055 8.13405 7.51223C8.16374 7.5839 8.20726 7.64903 8.26212 7.70389C8.37291 7.81469 8.52318 7.87693 8.67987 7.87693C8.83655 7.87693 8.98682 7.81469 9.09762 7.70389C9.20841 7.5931 9.27066 7.44283 9.27066 7.28614C9.27066 7.12945 9.20841 6.97919 9.09762 6.86839ZM11.8816 9.65239C11.9389 9.7067 11.9848 9.77193 12.0164 9.84425C12.0481 9.91656 12.065 9.99448 12.066 10.0734C12.0671 10.1524 12.0523 10.2307 12.0226 10.3038C11.9929 10.377 11.9488 10.4434 11.893 10.4992C11.8371 10.5551 11.7707 10.5991 11.6976 10.6289C11.6244 10.6586 11.5461 10.6733 11.4671 10.6723C11.3882 10.6712 11.3103 10.6544 11.238 10.6227C11.1657 10.591 11.1004 10.5452 11.0461 10.4879C10.9402 10.3761 10.8821 10.2274 10.8841 10.0734C10.8862 9.91943 10.9483 9.77234 11.0572 9.66344C11.1661 9.55455 11.3132 9.49246 11.4671 9.49039C11.6211 9.48833 11.7698 9.54645 11.8816 9.65239ZM12.5784 12.5766C12.6332 12.5218 12.6767 12.4567 12.7064 12.385C12.7361 12.3133 12.7514 12.2365 12.7514 12.1589C12.7514 12.0813 12.7361 12.0045 12.7064 11.9328C12.6767 11.8611 12.6332 11.796 12.5784 11.7411C12.5235 11.6863 12.4584 11.6428 12.3867 11.6131C12.315 11.5834 12.2382 11.5681 12.1606 11.5681C12.083 11.5681 12.0062 11.5834 11.9345 11.6131C11.8629 11.6428 11.7977 11.6863 11.7429 11.7411C11.6321 11.8519 11.5698 12.0022 11.5698 12.1589C11.5698 12.3156 11.6321 12.4658 11.7429 12.5766C11.8537 12.6874 12.0039 12.7497 12.1606 12.7497C12.3173 12.7497 12.4676 12.6874 12.5784 12.5766ZM9.79362 9.79189C9.90441 9.6812 9.96669 9.53102 9.96677 9.37441C9.96684 9.21779 9.90469 9.06756 9.79399 8.95677C9.6833 8.84597 9.53312 8.78369 9.37651 8.78362C9.21989 8.78355 9.06966 8.8457 8.95887 8.95639C8.90401 9.0112 8.86048 9.07628 8.83077 9.14791C8.80106 9.21955 8.78576 9.29633 8.78572 9.37388C8.78565 9.53049 8.8478 9.68072 8.95849 9.79152C9.06919 9.90231 9.21936 9.96459 9.37598 9.96466C9.53259 9.96473 9.68282 9.90259 9.79362 9.79189ZM10.4896 11.0444C10.5469 11.0987 10.5928 11.1639 10.6244 11.2362C10.6561 11.3086 10.673 11.3865 10.674 11.4654C10.6751 11.5444 10.6603 11.6227 10.6306 11.6958C10.6009 11.769 10.5568 11.8354 10.501 11.8912C10.4451 11.9471 10.3787 11.9911 10.3056 12.0209C10.2324 12.0506 10.1541 12.0653 10.0751 12.0643C9.99621 12.0632 9.91828 12.0464 9.84597 12.0147C9.77366 11.983 9.70842 11.9372 9.65412 11.8799C9.55067 11.7677 9.49464 11.6198 9.49778 11.4672C9.50091 11.3146 9.56297 11.1691 9.67094 11.0612C9.77892 10.9534 9.92444 10.8914 10.077 10.8884C10.2296 10.8854 10.3775 10.9416 10.4896 11.0451M6.87087 8.26189C6.98166 8.1511 7.13193 8.08885 7.28862 8.08885C7.4453 8.08885 7.59557 8.1511 7.70637 8.26189C7.81716 8.37268 7.87941 8.52295 7.87941 8.67964C7.87941 8.83633 7.81716 8.9866 7.70637 9.09739C7.59557 9.20819 7.4453 9.27043 7.28862 9.27043C7.13193 9.27043 6.98166 9.20819 6.87087 9.09739C6.76007 8.9866 6.69783 8.83633 6.69783 8.67964C6.69783 8.52295 6.76007 8.37268 6.87087 8.26189Z" fill="#80ABFE"/>
<path opacity="0.5" d="M15.5904 6.80318C16.173 6.22057 16.5003 5.43037 16.5003 4.60643C16.5003 3.78249 16.173 2.99229 15.5904 2.40968C15.0078 1.82707 14.2176 1.49976 13.3937 1.49976C12.5697 1.49976 11.7795 1.82707 11.1969 2.40968L9.00017 4.60718L13.3937 8.99993L15.5904 6.80318ZM9.00017 13.3934L4.60667 8.99993L2.40992 11.1967C1.82731 11.7793 1.5 12.5695 1.5 13.3934C1.5 14.2174 1.82731 15.0076 2.40992 15.5902C2.99254 16.1728 3.78273 16.5001 4.60667 16.5001C5.43061 16.5001 6.22081 16.1728 6.80342 15.5902L9.00017 13.3934Z" fill="#80ABFE"/>
</svg>
