<svg width="22" height="22" viewBox="0 0 22 22" fill="none" xmlns="http://www.w3.org/2000/svg">
<path d="M9.28262 0.2376V2.65118C9.28262 2.78825 9.34188 2.91936 9.44558 3.01173L16.9209 9.53437L0.237028 9.53437C0.106663 9.53437 -5.73092e-09 9.64164 0 9.77275L7.81486e-08 11.5606C8.38796e-08 11.6917 0.106663 11.799 0.237028 11.799H16.9209L9.44558 18.3216C9.34188 18.411 9.28262 18.5421 9.28262 18.6821V21.0957C9.28262 21.2984 9.52262 21.4086 9.67372 21.2745L21.0066 11.3848C21.1092 11.2954 21.1914 11.1849 21.2478 11.0607C21.3042 10.9366 21.3333 10.8017 21.3333 10.6652C21.3333 10.5287 21.3042 10.3938 21.2478 10.2696C21.1914 10.1455 21.1092 10.035 21.0066 9.94557L9.67372 0.0588161C9.51965 -0.0752719 9.28262 0.0349782 9.28262 0.2376Z" fill="black"/>
</svg>
