<svg width="18" height="18" viewBox="0 0 18 18" fill="none" xmlns="http://www.w3.org/2000/svg">
<path opacity="0.5" d="M2.598 15.402C3.6975 16.5 5.4645 16.5 9 16.5C12.5355 16.5 14.3033 16.5 15.4012 15.4012C16.5 14.304 16.5 12.5355 16.5 9C16.5 5.4645 16.5 3.69675 15.4012 2.598C14.304 1.5 12.5355 1.5 9 1.5C5.4645 1.5 3.69675 1.5 2.598 2.598C1.5 3.6975 1.5 5.4645 1.5 9C1.5 12.5355 1.5 14.304 2.598 15.402Z" fill="#80ABFE"/>
<path d="M3.75 6.375V5.625C3.75 5.32663 3.86853 5.04048 4.0795 4.8295C4.29048 4.61853 4.57663 4.5 4.875 4.5H13.125C13.4234 4.5 13.7095 4.61853 13.9205 4.8295C14.1315 5.04048 14.25 5.32663 14.25 5.625V6.375C13.9254 6.13158 13.5307 6 13.125 6H4.875C4.45275 6 4.0635 6.1395 3.75 6.375ZM3.75 8.625V7.875C3.75 7.57663 3.86853 7.29048 4.0795 7.0795C4.29048 6.86853 4.57663 6.75 4.875 6.75H13.125C13.4234 6.75 13.7095 6.86853 13.9205 7.0795C14.1315 7.29048 14.25 7.57663 14.25 7.875V8.625C13.9254 8.38158 13.5307 8.25 13.125 8.25H4.875C4.46931 8.25 4.07456 8.38158 3.75 8.625ZM15.5625 11.25C15.5625 11.1008 15.5032 10.9577 15.3977 10.8523C15.2923 10.7468 15.1492 10.6875 15 10.6875H14.235V9.9375C14.1907 9.67523 14.0548 9.43716 13.8516 9.26553C13.6484 9.0939 13.391 8.99983 13.125 9H4.875C4.60901 8.99983 4.35157 9.0939 4.14836 9.26553C3.94515 9.43716 3.80933 9.67523 3.765 9.9375V10.6875H3C2.85082 10.6875 2.70774 10.7468 2.60225 10.8523C2.49676 10.9577 2.4375 11.1008 2.4375 11.25C2.4375 11.3992 2.49676 11.5423 2.60225 11.6477C2.70774 11.7532 2.85082 11.8125 3 11.8125H4.72575C5.37825 11.8125 5.54925 11.8222 5.6955 11.8815L5.74125 11.9018C5.88375 11.9693 6.0075 12.0892 6.4485 12.5685L6.4755 12.597L6.53175 12.6593C6.86025 13.0162 7.119 13.2983 7.45875 13.4692C7.52175 13.5007 7.58625 13.529 7.65225 13.554C8.00775 13.689 8.391 13.6882 8.8755 13.6875H9.039C9.49725 13.6875 9.8595 13.6883 10.1993 13.5668C10.2622 13.5443 10.3243 13.5185 10.3853 13.4895C10.7107 13.3357 10.9665 13.0793 11.2905 12.7545L11.3468 12.699L11.5192 12.5265C11.985 12.0607 12.114 11.9453 12.2625 11.8837C12.411 11.8223 12.5835 11.8125 13.2428 11.8125H15C15.1492 11.8125 15.2923 11.7532 15.3977 11.6477C15.5032 11.5423 15.5625 11.3992 15.5625 11.25Z" fill="#80ABFE"/>
</svg>
