<svg width="32" height="32" viewBox="0 0 32 32" fill="none" xmlns="http://www.w3.org/2000/svg">
<path opacity="0.5" fill-rule="evenodd" clip-rule="evenodd" d="M23.2 16C24.3352 16.0004 25.4544 15.7323 26.4663 15.2177C27.4781 14.7031 28.354 13.9565 29.0223 13.0389C29.6906 12.1212 30.1325 11.0586 30.3119 9.93762C30.4912 8.81667 30.403 7.66919 30.0544 6.58883C29.8864 6.07043 29.2384 5.96323 28.8528 6.34883L24.544 10.656C24.4452 10.7609 24.3172 10.8338 24.1766 10.8651C24.036 10.8965 23.8892 10.885 23.7552 10.832C22.5847 10.3458 21.6541 9.41629 21.1664 8.24643C21.1142 8.11206 21.103 7.96522 21.1343 7.82451C21.1657 7.68379 21.2381 7.55555 21.3424 7.45603L25.6528 3.14883C26.0368 2.76323 25.9312 2.11363 25.4128 1.94563C24.2949 1.58473 23.1057 1.50283 21.9489 1.70708C20.792 1.91133 19.7028 2.39552 18.7761 3.11741C17.8494 3.83931 17.1134 4.77698 16.6323 5.84865C16.1512 6.92032 15.9396 8.09342 16.016 9.26563C16.104 10.6624 15.8112 12.1584 14.736 13.0544L3.16797 22.6928C2.70369 23.0809 2.3253 23.5613 2.05689 24.1036C1.78848 24.6459 1.63593 25.2382 1.60895 25.8427C1.58197 26.4471 1.68115 27.0506 1.90019 27.6147C2.11922 28.1787 2.4533 28.691 2.88116 29.1188C3.30902 29.5467 3.82128 29.8808 4.38533 30.0998C4.94939 30.3189 5.55286 30.418 6.15735 30.3911C6.76183 30.3641 7.35408 30.2115 7.89637 29.9431C8.43867 29.6747 8.91913 29.2963 9.30717 28.832L18.9456 17.264C19.8416 16.1888 21.3376 15.896 22.7344 15.984C22.888 15.9947 23.0432 16 23.2 16ZM7.99997 25.6C7.99997 26.0244 7.8314 26.4313 7.53134 26.7314C7.23128 27.0315 6.82432 27.2 6.39997 27.2C5.97562 27.2 5.56866 27.0315 5.2686 26.7314C4.96854 26.4313 4.79997 26.0244 4.79997 25.6C4.79997 25.1757 4.96854 24.7687 5.2686 24.4687C5.56866 24.1686 5.97562 24 6.39997 24C6.82432 24 7.23128 24.1686 7.53134 24.4687C7.8314 24.7687 7.99997 25.1757 7.99997 25.6Z" fill="#80ABFE"/>
<path d="M23.1999 18.4C23.4773 18.4 23.7514 18.3883 24.0223 18.3648L30.0287 24.3712C30.779 25.1215 31.2005 26.139 31.2005 27.2C31.2005 28.261 30.779 29.2786 30.0287 30.0288C29.2785 30.7791 28.2609 31.2006 27.1999 31.2006C26.1389 31.2006 25.1214 30.7791 24.3711 30.0288L17.3151 22.9728L20.7903 18.8016C20.8735 18.7024 21.0255 18.5808 21.3375 18.488C21.7428 18.3818 22.1633 18.3455 22.5807 18.3808C22.7855 18.3936 22.9919 18.4 23.1999 18.4ZM9.59994 7.33763L13.3279 11.0656C13.2912 11.1186 13.2483 11.167 13.1999 11.2096L10.8799 13.1424L7.33754 9.60003H5.29434C5.1459 9.60002 5.00038 9.55872 4.87407 9.48073C4.74776 9.40274 4.64564 9.29114 4.57914 9.15843L1.85914 3.71523C1.78398 3.56519 1.7579 3.3953 1.78461 3.22963C1.81131 3.06395 1.88944 2.91086 2.00794 2.79203L2.79194 2.00803C2.91058 1.88927 3.06358 1.81084 3.22927 1.78385C3.39496 1.75686 3.56494 1.78267 3.71514 1.85763L9.15834 4.57763C9.29154 4.64438 9.40346 4.74699 9.48148 4.87392C9.5595 5.00085 9.60053 5.14704 9.59994 5.29603V7.33763Z" fill="#80ABFE"/>
</svg>
