<svg width="32" height="32" viewBox="0 0 32 32" fill="none" xmlns="http://www.w3.org/2000/svg">
<path opacity="0.5" d="M4 13.8892C4 9.62517 4 7.49317 4.504 6.77584C5.00667 6.05984 7.01067 5.37317 11.02 4.00117L11.784 3.73984C13.8733 3.02384 14.9173 2.6665 16 2.6665C17.0827 2.6665 18.1267 3.02384 20.216 3.73984L20.98 4.00117C24.9893 5.37317 26.9933 6.05984 27.496 6.77584C28 7.49317 28 9.6265 28 13.8892V15.9878C28 23.5052 22.348 27.1545 18.8013 28.7025C17.84 29.1225 17.36 29.3332 16 29.3332C14.64 29.3332 14.16 29.1225 13.1987 28.7025C9.652 27.1532 4 23.5065 4 15.9878V13.8892Z" fill="#000819"/>
<path d="M18.666 12.0002C18.666 12.7074 18.3851 13.3857 17.885 13.8858C17.3849 14.3859 16.7066 14.6668 15.9993 14.6668C15.2921 14.6668 14.6138 14.3859 14.1137 13.8858C13.6136 13.3857 13.3327 12.7074 13.3327 12.0002C13.3327 11.2929 13.6136 10.6146 14.1137 10.1145C14.6138 9.61445 15.2921 9.3335 15.9993 9.3335C16.7066 9.3335 17.3849 9.61445 17.885 10.1145C18.3851 10.6146 18.666 11.2929 18.666 12.0002ZM15.9993 22.6668C21.3327 22.6668 21.3327 21.4735 21.3327 20.0002C21.3327 18.5268 18.946 17.3335 15.9993 17.3335C13.0527 17.3335 10.666 18.5268 10.666 20.0002C10.666 21.4735 10.666 22.6668 15.9993 22.6668Z" fill="#000819"/>
</svg>
