<svg width="116" height="17" viewBox="0 0 116 17" fill="none" xmlns="http://www.w3.org/2000/svg">
<path d="M0.862183 11.8629C0.97386 11.697 1.08554 11.5311 1.88293 10.4641C2.68033 9.39715 4.16006 7.43414 5.07591 6.257C6.26837 4.72433 7.03408 4.15742 7.85009 3.75276C8.55602 3.40268 9.37509 3.5123 10.2326 3.70625C12.849 4.29808 13.9742 6.91721 14.2559 7.34952C14.3739 7.53063 14.426 7.6436 14.5385 7.43791C14.9146 6.75047 15.1028 5.55742 15.3977 4.27639C15.7245 2.85622 16.5098 1.78472 17.3956 1.18484C17.8301 0.890595 18.3652 0.833789 18.9312 0.873585C19.4972 0.913381 20.1114 1.10692 20.707 1.56604C21.3026 2.02517 21.861 2.74402 22.4 4.27555C22.9389 5.80709 23.4414 8.12953 23.6864 9.92037C23.9313 11.7112 23.9034 12.9001 23.903 13.319C23.9025 13.7379 23.9305 13.3508 24.3776 12.2252C24.8247 11.0996 25.6902 9.24718 26.3594 7.98877C27.3802 6.06942 28.7453 5.0254 30.1675 4.35473C30.75 4.08003 31.1709 4.23701 31.5817 4.45946C31.9924 4.6819 32.4112 5.04133 33.0457 5.87621C34.6153 7.94135 35.5483 9.87471 35.9976 10.3389C36.6854 11.0495 37.7709 8.04575 39.1077 6.47023C39.7161 5.75311 40.3048 5.30943 42.5189 5.92439C44.733 6.53934 48.5859 8.25353 50.836 8.86011C53.086 9.46669 53.6165 8.91373 53.8898 9.18183C54.163 9.44993 54.2608 11.1256 54.2608 11.1256C54.3585 11.6953 55.199 11.2253 55.199 11.2253C57.0063 9.90854 58.3899 8.37669 58.9394 7.54013C59.548 6.61359 59.5473 5.66801 60.2516 4.77196C60.8327 4.03269 62.6438 5.01702 64.3867 6.00398C66.6252 7.27163 67.8664 8.89781 68.2472 9.70673C68.4017 10.0351 68.3766 10.2392 68.4604 10.325C68.5441 10.4109 68.7116 10.3833 69.3982 9.06957C70.0848 7.75586 71.2853 5.15694 72.0294 3.63839C72.7735 2.11984 73.0248 1.76042 73.2938 1.53378C73.7745 1.12885 74.3251 1.13875 74.7748 1.22169C75.3794 1.33322 76.2668 2.49854 77.4208 4.36395C78.0228 5.33709 78.4073 6.50583 78.6654 7.35245C78.9234 8.19907 78.9792 8.72438 78.994 9.83826C79.0088 10.9521 78.9809 12.6387 78.8269 13.9222C78.673 15.2058 78.236 16.3795 78.236 16.3795L78.692 15.2699C79.3337 13.9817 80.646 11.5763 81.5174 10.0745C82.7156 8.00962 83.6012 7.22971 84.4312 6.72785C85.1942 6.26644 86.1664 6.05508 87.1516 5.90134C87.9595 5.77527 88.8737 6.19081 89.831 6.74796C90.6283 7.21198 91.1048 8.00469 91.5409 8.90954C91.773 9.391 91.9491 9.95262 92.6501 8.77214C93.351 7.59165 94.5515 4.66095 95.3515 3.04061C96.1514 1.42027 96.5144 1.19908 96.8968 1.07131C97.6444 0.821517 98.5753 1.10859 99.5043 1.66491C100.44 2.22538 100.974 3.92115 101.608 6.18997C102.339 8.81001 102.274 10.6036 102.429 11.0221C102.496 11.2059 102.667 11.2747 102.795 11.2898C103.463 11.3687 104.971 9.38961 106.122 8.33228C106.417 8.06079 106.616 7.78602 107.01 7.70224C107.948 7.50231 108.98 7.75754 110.334 7.89661C111.588 8.02538 112.511 8.06334 112.722 8.32809C112.813 8.44195 112.794 8.5652 112.906 8.67747C113.017 8.78974 113.241 8.90033 113.523 8.9573C113.806 9.01427 114.141 9.01427 114.655 8.93049" stroke="black" stroke-width="1.72414" stroke-linecap="round"/>
</svg>
