<svg width="24" height="24" viewBox="0 0 24 24" fill="none" xmlns="http://www.w3.org/2000/svg">
<path opacity="0.5" d="M10.561 2.25C10.448 2.25 10.36 2.25 10.276 2.255C9.75646 2.28658 9.25653 2.46498 8.83434 2.76945C8.41215 3.07393 8.08504 3.49197 7.89103 3.975C7.85903 4.054 7.83103 4.139 7.79203 4.253C7.70903 4.477 7.51803 4.732 7.25003 4.936C7.22003 4.95866 7.19003 4.98 7.16003 5H9.10203C9.13137 4.94 9.15803 4.87933 9.18203 4.818L9.18303 4.815L9.18703 4.805L9.19203 4.793L9.19703 4.781L9.20103 4.771L9.20203 4.766L9.20703 4.754L9.21003 4.742L9.21303 4.736L9.21503 4.728L9.21703 4.721L9.21903 4.715C9.25903 4.599 9.27103 4.562 9.28203 4.534C9.37026 4.31427 9.51907 4.12412 9.71115 3.98568C9.90323 3.84724 10.1307 3.7662 10.367 3.752C10.399 3.75 10.438 3.75 10.582 3.75H13.419C13.563 3.75 13.602 3.75 13.635 3.752C14.117 3.782 14.539 4.086 14.719 4.534C14.73 4.562 14.742 4.597 14.782 4.715L14.784 4.721L14.786 4.728L14.789 4.736L14.791 4.742L14.794 4.754L14.799 4.766L14.8 4.771L14.804 4.781L14.809 4.793L14.813 4.805L14.818 4.815L14.819 4.818C14.843 4.88 14.8697 4.94066 14.899 5H16.841C16.811 4.98 16.781 4.95866 16.751 4.936C16.483 4.732 16.292 4.476 16.209 4.253L16.206 4.243C16.17 4.136 16.142 4.052 16.111 3.974C15.9168 3.49101 15.5895 3.07307 15.1671 2.76877C14.7447 2.46447 14.2447 2.28631 13.725 2.255C13.6301 2.25062 13.5351 2.24895 13.44 2.25H10.561Z" fill="#0157FE"/>
<path fill-rule="evenodd" clip-rule="evenodd" d="M17.192 5H6.808C5.12 5 4.277 5 3.633 5.33C3.07273 5.61688 2.61688 6.07273 2.33 6.633C2 7.277 2 8.12 2 9.808C2 10.237 2 10.451 2.073 10.632C2.13693 10.79 2.2402 10.9291 2.373 11.036C2.526 11.158 2.731 11.219 3.143 11.343L8.5 12.95V14.163C8.5 14.928 8.96 15.634 9.687 15.93L10.247 16.157C11.3709 16.6145 12.6291 16.6145 13.753 16.157L14.313 15.93C14.6639 15.7865 14.9641 15.5419 15.1755 15.2272C15.3869 14.9125 15.4998 14.5421 15.5 14.163V12.95L20.858 11.343C21.268 11.219 21.474 11.158 21.626 11.036C21.7588 10.9291 21.8621 10.79 21.926 10.632C22 10.452 22 10.237 22 9.808C22 8.12 22 7.277 21.67 6.633C21.3831 6.07273 20.9273 5.61688 20.367 5.33C19.723 5 18.88 5 17.192 5ZM13.6 12H10.4C10.18 12 10 12.182 10 12.406V14.163C10 14.329 10.1 14.478 10.251 14.54L10.811 14.768C11.575 15.078 12.425 15.078 13.188 14.768L13.748 14.54C13.8224 14.5089 13.886 14.4566 13.9309 14.3895C13.9757 14.3225 13.9997 14.2437 14 14.163V12.406C14.0004 12.3531 13.9904 12.3006 13.9705 12.2515C13.9506 12.2025 13.9212 12.1579 13.8841 12.1202C13.8469 12.0825 13.8027 12.0524 13.754 12.0318C13.7053 12.0112 13.6529 12.0004 13.6 12Z" fill="#0157FE"/>
<path opacity="0.3" d="M3 11.3L3.142 11.343L8.5 12.95V14.163C8.5 14.928 8.96 15.634 9.687 15.93L10.247 16.157C11.3709 16.6144 12.6291 16.6144 13.753 16.157L14.313 15.93C14.6639 15.7865 14.9641 15.5418 15.1755 15.2272C15.3869 14.9125 15.4998 14.5421 15.5 14.163V12.95L20.858 11.343L21 11.3V12.3C21 15.975 20.965 19.688 19.682 20.828C18.364 22 16.242 22 12 22C7.758 22 5.636 22 4.318 20.828C3.035 19.688 3.001 15.975 3 12.3V11.3Z" fill="#0157FE"/>
</svg>
