<svg width="18" height="18" viewBox="0 0 18 18" fill="none" xmlns="http://www.w3.org/2000/svg">
<path d="M9 7.5C10.6569 7.5 12 6.15685 12 4.5C12 2.84315 10.6569 1.5 9 1.5C7.34315 1.5 6 2.84315 6 4.5C6 6.15685 7.34315 7.5 9 7.5Z" fill="#80ABFE"/>
<path opacity="0.5" d="M13.5712 11.2733C13.2525 11.25 12.8617 11.25 12.375 11.25C11.1375 11.25 10.5187 11.25 10.1347 11.6347C9.75 12.0187 9.75 12.6375 9.75 13.875C9.75 14.7495 9.75 15.315 9.88575 15.7073C9.59775 15.7358 9.3025 15.75 9 15.75C6.1005 15.75 3.75 14.4075 3.75 12.75C3.75 11.0925 6.1005 9.75 9 9.75C10.9597 9.75 12.669 10.3635 13.5712 11.2733Z" fill="#80ABFE"/>
<path fill-rule="evenodd" clip-rule="evenodd" d="M12.375 16.5C11.1375 16.5 10.5187 16.5 10.1347 16.1152C9.75 15.7312 9.75 15.1125 9.75 13.875C9.75 12.6375 9.75 12.0187 10.1347 11.6347C10.5187 11.25 11.1375 11.25 12.375 11.25C13.6125 11.25 14.2312 11.25 14.6152 11.6347C15 12.0187 15 12.6375 15 13.875C15 15.1125 15 15.7312 14.6152 16.1152C14.2312 16.5 13.6125 16.5 12.375 16.5ZM12.8123 12.708C12.8123 12.592 12.7662 12.4808 12.6842 12.3988C12.6022 12.3168 12.491 12.2708 12.375 12.2708C12.259 12.2708 12.1478 12.3168 12.0658 12.3988C11.9838 12.4808 11.9377 12.592 11.9377 12.708V13.4377H11.208C11.092 13.4377 10.9808 13.4838 10.8988 13.5658C10.8168 13.6478 10.7708 13.759 10.7708 13.875C10.7708 13.991 10.8168 14.1022 10.8988 14.1842C10.9808 14.2662 11.092 14.3123 11.208 14.3123H11.9377V15.042C11.9377 15.158 11.9838 15.2692 12.0658 15.3512C12.1478 15.4332 12.259 15.4792 12.375 15.4792C12.491 15.4792 12.6022 15.4332 12.6842 15.3512C12.7662 15.2692 12.8123 15.158 12.8123 15.042V14.3123H13.542C13.658 14.3123 13.7692 14.2662 13.8512 14.1842C13.9332 14.1022 13.9792 13.991 13.9792 13.875C13.9792 13.759 13.9332 13.6478 13.8512 13.5658C13.7692 13.4838 13.658 13.4377 13.542 13.4377H12.8123V12.708Z" fill="#80ABFE"/>
</svg>
